G04 #@! TF.GenerationSoftware,KiCad,Pcbnew,7.0.5-0*
G04 #@! TF.CreationDate,2023-08-21T21:43:47+08:00*
G04 #@! TF.ProjectId,sensor,73656e73-6f72-42e6-9b69-6361645f7063,rev?*
G04 #@! TF.SameCoordinates,PX4d3f640PY69db9c0*
G04 #@! TF.FileFunction,Legend,Top*
G04 #@! TF.FilePolarity,Positive*
%FSLAX46Y46*%
G04 Gerber Fmt 4.6, Leading zero omitted, Abs format (unit mm)*
G04 Created by KiCad (PCBNEW 7.0.5-0) date 2023-08-21 21:43:47*
%MOMM*%
%LPD*%
G01*
G04 APERTURE LIST*
%ADD10C,0.150000*%
%ADD11C,0.100000*%
G04 APERTURE END LIST*
D10*
X-3278936Y12337705D02*
X-3126555Y12337705D01*
X-3126555Y12337705D02*
X-3050365Y12299610D01*
X-3050365Y12299610D02*
X-2974174Y12223420D01*
X-2974174Y12223420D02*
X-2936079Y12071039D01*
X-2936079Y12071039D02*
X-2936079Y11804372D01*
X-2936079Y11804372D02*
X-2974174Y11651991D01*
X-2974174Y11651991D02*
X-3050365Y11575800D01*
X-3050365Y11575800D02*
X-3126555Y11537705D01*
X-3126555Y11537705D02*
X-3278936Y11537705D01*
X-3278936Y11537705D02*
X-3355127Y11575800D01*
X-3355127Y11575800D02*
X-3431317Y11651991D01*
X-3431317Y11651991D02*
X-3469413Y11804372D01*
X-3469413Y11804372D02*
X-3469413Y12071039D01*
X-3469413Y12071039D02*
X-3431317Y12223420D01*
X-3431317Y12223420D02*
X-3355127Y12299610D01*
X-3355127Y12299610D02*
X-3278936Y12337705D01*
X-2593222Y12071039D02*
X-2593222Y11271039D01*
X-2593222Y12032943D02*
X-2517032Y12071039D01*
X-2517032Y12071039D02*
X-2364651Y12071039D01*
X-2364651Y12071039D02*
X-2288460Y12032943D01*
X-2288460Y12032943D02*
X-2250365Y11994848D01*
X-2250365Y11994848D02*
X-2212270Y11918658D01*
X-2212270Y11918658D02*
X-2212270Y11690086D01*
X-2212270Y11690086D02*
X-2250365Y11613896D01*
X-2250365Y11613896D02*
X-2288460Y11575800D01*
X-2288460Y11575800D02*
X-2364651Y11537705D01*
X-2364651Y11537705D02*
X-2517032Y11537705D01*
X-2517032Y11537705D02*
X-2593222Y11575800D01*
X-1983698Y12071039D02*
X-1678936Y12071039D01*
X-1869412Y12337705D02*
X-1869412Y11651991D01*
X-1869412Y11651991D02*
X-1831317Y11575800D01*
X-1831317Y11575800D02*
X-1755127Y11537705D01*
X-1755127Y11537705D02*
X-1678936Y11537705D01*
X-1412269Y11537705D02*
X-1412269Y12071039D01*
X-1412269Y12337705D02*
X-1450365Y12299610D01*
X-1450365Y12299610D02*
X-1412269Y12261515D01*
X-1412269Y12261515D02*
X-1374174Y12299610D01*
X-1374174Y12299610D02*
X-1412269Y12337705D01*
X-1412269Y12337705D02*
X-1412269Y12261515D01*
X-688460Y11575800D02*
X-764651Y11537705D01*
X-764651Y11537705D02*
X-917032Y11537705D01*
X-917032Y11537705D02*
X-993222Y11575800D01*
X-993222Y11575800D02*
X-1031317Y11613896D01*
X-1031317Y11613896D02*
X-1069413Y11690086D01*
X-1069413Y11690086D02*
X-1069413Y11918658D01*
X-1069413Y11918658D02*
X-1031317Y11994848D01*
X-1031317Y11994848D02*
X-993222Y12032943D01*
X-993222Y12032943D02*
X-917032Y12071039D01*
X-917032Y12071039D02*
X-764651Y12071039D01*
X-764651Y12071039D02*
X-688460Y12032943D01*
X-2746Y11537705D02*
X-2746Y11956753D01*
X-2746Y11956753D02*
X-40841Y12032943D01*
X-40841Y12032943D02*
X-117032Y12071039D01*
X-117032Y12071039D02*
X-269413Y12071039D01*
X-269413Y12071039D02*
X-345603Y12032943D01*
X-2746Y11575800D02*
X-78937Y11537705D01*
X-78937Y11537705D02*
X-269413Y11537705D01*
X-269413Y11537705D02*
X-345603Y11575800D01*
X-345603Y11575800D02*
X-383699Y11651991D01*
X-383699Y11651991D02*
X-383699Y11728181D01*
X-383699Y11728181D02*
X-345603Y11804372D01*
X-345603Y11804372D02*
X-269413Y11842467D01*
X-269413Y11842467D02*
X-78937Y11842467D01*
X-78937Y11842467D02*
X-2746Y11880562D01*
X492492Y11537705D02*
X416302Y11575800D01*
X416302Y11575800D02*
X378207Y11651991D01*
X378207Y11651991D02*
X378207Y12337705D01*
X1368683Y11575800D02*
X1444874Y11537705D01*
X1444874Y11537705D02*
X1597255Y11537705D01*
X1597255Y11537705D02*
X1673445Y11575800D01*
X1673445Y11575800D02*
X1711541Y11651991D01*
X1711541Y11651991D02*
X1711541Y11690086D01*
X1711541Y11690086D02*
X1673445Y11766277D01*
X1673445Y11766277D02*
X1597255Y11804372D01*
X1597255Y11804372D02*
X1482969Y11804372D01*
X1482969Y11804372D02*
X1406779Y11842467D01*
X1406779Y11842467D02*
X1368683Y11918658D01*
X1368683Y11918658D02*
X1368683Y11956753D01*
X1368683Y11956753D02*
X1406779Y12032943D01*
X1406779Y12032943D02*
X1482969Y12071039D01*
X1482969Y12071039D02*
X1597255Y12071039D01*
X1597255Y12071039D02*
X1673445Y12032943D01*
X2054398Y11537705D02*
X2054398Y12071039D01*
X2054398Y12337705D02*
X2016302Y12299610D01*
X2016302Y12299610D02*
X2054398Y12261515D01*
X2054398Y12261515D02*
X2092493Y12299610D01*
X2092493Y12299610D02*
X2054398Y12337705D01*
X2054398Y12337705D02*
X2054398Y12261515D01*
X2778207Y11537705D02*
X2778207Y12337705D01*
X2778207Y11575800D02*
X2702016Y11537705D01*
X2702016Y11537705D02*
X2549635Y11537705D01*
X2549635Y11537705D02*
X2473445Y11575800D01*
X2473445Y11575800D02*
X2435350Y11613896D01*
X2435350Y11613896D02*
X2397254Y11690086D01*
X2397254Y11690086D02*
X2397254Y11918658D01*
X2397254Y11918658D02*
X2435350Y11994848D01*
X2435350Y11994848D02*
X2473445Y12032943D01*
X2473445Y12032943D02*
X2549635Y12071039D01*
X2549635Y12071039D02*
X2702016Y12071039D01*
X2702016Y12071039D02*
X2778207Y12032943D01*
X3463922Y11575800D02*
X3387731Y11537705D01*
X3387731Y11537705D02*
X3235350Y11537705D01*
X3235350Y11537705D02*
X3159160Y11575800D01*
X3159160Y11575800D02*
X3121064Y11651991D01*
X3121064Y11651991D02*
X3121064Y11956753D01*
X3121064Y11956753D02*
X3159160Y12032943D01*
X3159160Y12032943D02*
X3235350Y12071039D01*
X3235350Y12071039D02*
X3387731Y12071039D01*
X3387731Y12071039D02*
X3463922Y12032943D01*
X3463922Y12032943D02*
X3502017Y11956753D01*
X3502017Y11956753D02*
X3502017Y11880562D01*
X3502017Y11880562D02*
X3121064Y11804372D01*
X-761905Y-21804819D02*
X-761905Y-20804819D01*
X-761905Y-21281009D02*
X-190477Y-21281009D01*
X-190477Y-21804819D02*
X-190477Y-20804819D01*
X238095Y-20900057D02*
X285714Y-20852438D01*
X285714Y-20852438D02*
X380952Y-20804819D01*
X380952Y-20804819D02*
X619047Y-20804819D01*
X619047Y-20804819D02*
X714285Y-20852438D01*
X714285Y-20852438D02*
X761904Y-20900057D01*
X761904Y-20900057D02*
X809523Y-20995295D01*
X809523Y-20995295D02*
X809523Y-21090533D01*
X809523Y-21090533D02*
X761904Y-21233390D01*
X761904Y-21233390D02*
X190476Y-21804819D01*
X190476Y-21804819D02*
X809523Y-21804819D01*
X-761905Y20895181D02*
X-761905Y21895181D01*
X-761905Y21418991D02*
X-190477Y21418991D01*
X-190477Y20895181D02*
X-190477Y21895181D01*
X809523Y20895181D02*
X238095Y20895181D01*
X523809Y20895181D02*
X523809Y21895181D01*
X523809Y21895181D02*
X428571Y21752324D01*
X428571Y21752324D02*
X333333Y21657086D01*
X333333Y21657086D02*
X238095Y21609467D01*
D11*
X-9500000Y-3330000D02*
X-9500000Y3920000D01*
X-2450000Y10970000D02*
X2450000Y10970000D01*
X-2450000Y-10380000D02*
X-1500000Y-10380000D01*
X-1500000Y-10630000D02*
X1500000Y-10630000D01*
X1500000Y-10380000D02*
X2450000Y-10380000D01*
X9500000Y-3330000D02*
X9500000Y3920000D01*
X-2450000Y10970000D02*
G75*
G03*
X-9500000Y3920000I6J-7050006D01*
G01*
X-9500000Y-3330000D02*
G75*
G03*
X-2450000Y-10380000I7049999J-1D01*
G01*
X9500000Y3920000D02*
G75*
G03*
X2450000Y10970000I-7050000J0D01*
G01*
X2450000Y-10380000D02*
G75*
G03*
X9500000Y-3330000I0J7050000D01*
G01*
M02*
