G04 #@! TF.GenerationSoftware,KiCad,Pcbnew,7.0.5-0*
G04 #@! TF.CreationDate,2023-08-21T21:43:47+08:00*
G04 #@! TF.ProjectId,sensor,73656e73-6f72-42e6-9b69-6361645f7063,rev?*
G04 #@! TF.SameCoordinates,PX4d3f640PY69db9c0*
G04 #@! TF.FileFunction,Soldermask,Bot*
G04 #@! TF.FilePolarity,Negative*
%FSLAX46Y46*%
G04 Gerber Fmt 4.6, Leading zero omitted, Abs format (unit mm)*
G04 Created by KiCad (PCBNEW 7.0.5-0) date 2023-08-21 21:43:47*
%MOMM*%
%LPD*%
G01*
G04 APERTURE LIST*
G04 #@! TA.AperFunction,Profile*
%ADD10C,0.100000*%
G04 #@! TD*
G04 APERTURE END LIST*
D10*
X-4238753Y8796047D02*
X-4238753Y-6953953D01*
X-3738753Y9296047D02*
X3761247Y9296047D01*
X-3738753Y-7453953D02*
X3761247Y-7453953D01*
X4261247Y-6953953D02*
X4261247Y8796047D01*
X-3738753Y9296047D02*
G75*
G03*
X-4238753Y8796047I1J-500001D01*
G01*
X-4238753Y-6953953D02*
G75*
G03*
X-3738753Y-7453953I499998J-2D01*
G01*
X4261247Y8796047D02*
G75*
G03*
X3761247Y9296047I-499997J3D01*
G01*
X3761247Y-7453947D02*
G75*
G03*
X4261247Y-6953953I13J499987D01*
G01*
G36*
X83902Y-14603908D02*
G01*
X168678Y-14603908D01*
X247083Y-14613072D01*
X324782Y-14617436D01*
X413770Y-14632555D01*
X503753Y-14643073D01*
X574855Y-14659924D01*
X645487Y-14671925D01*
X738240Y-14698646D01*
X832016Y-14720872D01*
X895166Y-14743856D01*
X958076Y-14761981D01*
X1053084Y-14801334D01*
X1149027Y-14836255D01*
X1203798Y-14863762D01*
X1258613Y-14886467D01*
X1354210Y-14939301D01*
X1450500Y-14987660D01*
X1496761Y-15018086D01*
X1543317Y-15043817D01*
X1637669Y-15110763D01*
X1732357Y-15173041D01*
X1770233Y-15204823D01*
X1808623Y-15232062D01*
X1899783Y-15313528D01*
X1990787Y-15389889D01*
X2020646Y-15421538D01*
X2051177Y-15448822D01*
X2137133Y-15545006D01*
X2222295Y-15635273D01*
X2244725Y-15665402D01*
X2267937Y-15691376D01*
X2346640Y-15802297D01*
X2423750Y-15905874D01*
X2439552Y-15933245D01*
X2456182Y-15956682D01*
X2525591Y-16082270D01*
X2592428Y-16198034D01*
X2602581Y-16221572D01*
X2613532Y-16241386D01*
X2671602Y-16381580D01*
X2726048Y-16507800D01*
X2731690Y-16526646D01*
X2738018Y-16541923D01*
X2782804Y-16697378D01*
X2822803Y-16830983D01*
X2825181Y-16844471D01*
X2828074Y-16854512D01*
X2857762Y-17029250D01*
X2881384Y-17163214D01*
X2881832Y-17170919D01*
X2882563Y-17175217D01*
X2895494Y-17405475D01*
X2901000Y-17500000D01*
X2895494Y-17594531D01*
X2882563Y-17824782D01*
X2881832Y-17829079D01*
X2881384Y-17836786D01*
X2857758Y-17970776D01*
X2828074Y-18145487D01*
X2825181Y-18155525D01*
X2822803Y-18169017D01*
X2782796Y-18302647D01*
X2738018Y-18458076D01*
X2731691Y-18473349D01*
X2726048Y-18492200D01*
X2671591Y-18618443D01*
X2613532Y-18758613D01*
X2602583Y-18778422D01*
X2592428Y-18801966D01*
X2525578Y-18917752D01*
X2456182Y-19043317D01*
X2439555Y-19066749D01*
X2423750Y-19094126D01*
X2346625Y-19197722D01*
X2267937Y-19308623D01*
X2244729Y-19334591D01*
X2222295Y-19364727D01*
X2137116Y-19455011D01*
X2051177Y-19551177D01*
X2020652Y-19578455D01*
X1990787Y-19610111D01*
X1899764Y-19686487D01*
X1808623Y-19767937D01*
X1770241Y-19795170D01*
X1732357Y-19826959D01*
X1637650Y-19889248D01*
X1543317Y-19956182D01*
X1496770Y-19981907D01*
X1450500Y-20012340D01*
X1354190Y-20060708D01*
X1258613Y-20113532D01*
X1203809Y-20136232D01*
X1149027Y-20163745D01*
X1053064Y-20198672D01*
X958076Y-20238018D01*
X895179Y-20256138D01*
X832016Y-20279128D01*
X738220Y-20301357D01*
X645487Y-20328074D01*
X574870Y-20340072D01*
X503753Y-20356927D01*
X413751Y-20367446D01*
X324782Y-20382563D01*
X247100Y-20386925D01*
X168678Y-20396092D01*
X83883Y-20396092D01*
X-1Y-20400803D01*
X-83885Y-20396092D01*
X-168678Y-20396092D01*
X-247100Y-20386925D01*
X-324783Y-20382563D01*
X-413755Y-20367446D01*
X-503753Y-20356927D01*
X-574868Y-20340072D01*
X-645488Y-20328074D01*
X-738227Y-20301356D01*
X-832016Y-20279128D01*
X-895176Y-20256139D01*
X-958077Y-20238018D01*
X-1053073Y-20198669D01*
X-1149027Y-20163745D01*
X-1203805Y-20136234D01*
X-1258614Y-20113532D01*
X-1354202Y-20060702D01*
X-1450500Y-20012340D01*
X-1496766Y-19981910D01*
X-1543318Y-19956182D01*
X-1637665Y-19889239D01*
X-1732357Y-19826959D01*
X-1770237Y-19795174D01*
X-1808624Y-19767937D01*
X-1899782Y-19686473D01*
X-1990787Y-19610111D01*
X-2020648Y-19578461D01*
X-2051178Y-19551177D01*
X-2137136Y-19454990D01*
X-2222295Y-19364727D01*
X-2244725Y-19334598D01*
X-2267938Y-19308623D01*
X-2346647Y-19197694D01*
X-2423750Y-19094126D01*
X-2439552Y-19066756D01*
X-2456183Y-19043317D01*
X-2525603Y-18917711D01*
X-2592428Y-18801966D01*
X-2602581Y-18778430D01*
X-2613533Y-18758613D01*
X-2671618Y-18618385D01*
X-2726048Y-18492200D01*
X-2731689Y-18473358D01*
X-2738019Y-18458076D01*
X-2782824Y-18302558D01*
X-2822803Y-18169017D01*
X-2825181Y-18155534D01*
X-2828075Y-18145487D01*
X-2857786Y-17970620D01*
X-2881384Y-17836786D01*
X-2881833Y-17829088D01*
X-2882564Y-17824782D01*
X-2895521Y-17594071D01*
X-2901000Y-17500000D01*
X-2895524Y-17405974D01*
X-2882564Y-17175217D01*
X-2881833Y-17170910D01*
X-2881384Y-17163214D01*
X-2857791Y-17029406D01*
X-2828075Y-16854512D01*
X-2825180Y-16844462D01*
X-2822803Y-16830983D01*
X-2782831Y-16697466D01*
X-2738019Y-16541923D01*
X-2731688Y-16526637D01*
X-2726048Y-16507800D01*
X-2671628Y-16381639D01*
X-2613533Y-16241386D01*
X-2602579Y-16221564D01*
X-2592428Y-16198034D01*
X-2525616Y-16082310D01*
X-2456183Y-15956682D01*
X-2439549Y-15933237D01*
X-2423750Y-15905874D01*
X-2346662Y-15802326D01*
X-2267938Y-15691376D01*
X-2244721Y-15665395D01*
X-2222295Y-15635273D01*
X-2137153Y-15545026D01*
X-2051178Y-15448822D01*
X-2020642Y-15421532D01*
X-1990787Y-15389889D01*
X-1899800Y-15313541D01*
X-1808624Y-15232062D01*
X-1770229Y-15204818D01*
X-1732357Y-15173041D01*
X-1637684Y-15110772D01*
X-1543318Y-15043817D01*
X-1496756Y-15018083D01*
X-1450500Y-14987660D01*
X-1354221Y-14939306D01*
X-1258614Y-14886467D01*
X-1203794Y-14863759D01*
X-1149027Y-14836255D01*
X-1053093Y-14801337D01*
X-958077Y-14761981D01*
X-895163Y-14743855D01*
X-832016Y-14720872D01*
X-738247Y-14698648D01*
X-645488Y-14671925D01*
X-574853Y-14659923D01*
X-503753Y-14643073D01*
X-413774Y-14632555D01*
X-324783Y-14617436D01*
X-247084Y-14613072D01*
X-168678Y-14603908D01*
X-83902Y-14603908D01*
X0Y-14599196D01*
X83902Y-14603908D01*
G37*
G36*
X8467913Y-10967195D02*
G01*
X8483725Y-10974176D01*
X8491531Y-10975413D01*
X8524044Y-10991979D01*
X8569106Y-11011876D01*
X8647324Y-11090094D01*
X8667223Y-11135162D01*
X8683786Y-11167668D01*
X8685022Y-11175472D01*
X8692005Y-11191287D01*
X8699999Y-11260202D01*
X8699999Y-11270031D01*
X8700000Y-11270038D01*
X8700000Y-12315661D01*
X8700000Y-12510199D01*
X8692005Y-12579113D01*
X8685021Y-12594928D01*
X8683786Y-12602731D01*
X8667226Y-12635230D01*
X8647324Y-12680306D01*
X8569106Y-12758524D01*
X8524030Y-12778426D01*
X8491531Y-12794986D01*
X8483728Y-12796221D01*
X8467913Y-12803205D01*
X8398998Y-12811199D01*
X8389168Y-12811199D01*
X8389162Y-12811200D01*
X7483838Y-12811200D01*
X7483837Y-12811199D01*
X7474001Y-12811200D01*
X7405087Y-12803205D01*
X7389272Y-12796222D01*
X7381468Y-12794986D01*
X7348962Y-12778423D01*
X7303894Y-12758524D01*
X7225676Y-12680306D01*
X7205779Y-12635244D01*
X7189213Y-12602731D01*
X7187976Y-12594925D01*
X7180995Y-12579113D01*
X7173001Y-12510198D01*
X7173000Y-12500367D01*
X7173000Y-12500361D01*
X7173000Y-11270038D01*
X7173000Y-11270037D01*
X7173000Y-11260201D01*
X7180995Y-11191287D01*
X7187976Y-11175475D01*
X7189213Y-11167668D01*
X7205782Y-11135147D01*
X7225676Y-11090094D01*
X7303894Y-11011876D01*
X7348947Y-10991982D01*
X7381468Y-10975413D01*
X7389275Y-10974176D01*
X7405087Y-10967195D01*
X7474002Y-10959201D01*
X7483831Y-10959200D01*
X7483838Y-10959200D01*
X8389162Y-10959200D01*
X8398999Y-10959200D01*
X8467913Y-10967195D01*
G37*
G36*
X11442913Y-10967195D02*
G01*
X11458725Y-10974176D01*
X11466531Y-10975413D01*
X11499044Y-10991979D01*
X11544106Y-11011876D01*
X11622324Y-11090094D01*
X11642223Y-11135162D01*
X11658786Y-11167668D01*
X11660022Y-11175472D01*
X11667005Y-11191287D01*
X11674999Y-11260202D01*
X11674999Y-11270031D01*
X11675000Y-11270038D01*
X11675000Y-12315661D01*
X11675000Y-12510199D01*
X11667005Y-12579113D01*
X11660021Y-12594928D01*
X11658786Y-12602731D01*
X11642226Y-12635230D01*
X11622324Y-12680306D01*
X11544106Y-12758524D01*
X11499030Y-12778426D01*
X11466531Y-12794986D01*
X11458728Y-12796221D01*
X11442913Y-12803205D01*
X11373998Y-12811199D01*
X11364168Y-12811199D01*
X11364162Y-12811200D01*
X10458838Y-12811200D01*
X10458837Y-12811199D01*
X10449001Y-12811200D01*
X10380087Y-12803205D01*
X10364272Y-12796222D01*
X10356468Y-12794986D01*
X10323962Y-12778423D01*
X10278894Y-12758524D01*
X10200676Y-12680306D01*
X10180779Y-12635244D01*
X10164213Y-12602731D01*
X10162976Y-12594925D01*
X10155995Y-12579113D01*
X10148001Y-12510198D01*
X10148000Y-12500367D01*
X10148000Y-12500361D01*
X10148000Y-11270038D01*
X10148000Y-11270037D01*
X10148000Y-11260201D01*
X10155995Y-11191287D01*
X10162976Y-11175475D01*
X10164213Y-11167668D01*
X10180782Y-11135147D01*
X10200676Y-11090094D01*
X10278894Y-11011876D01*
X10323947Y-10991982D01*
X10356468Y-10975413D01*
X10364275Y-10974176D01*
X10380087Y-10967195D01*
X10449002Y-10959201D01*
X10458831Y-10959200D01*
X10458838Y-10959200D01*
X11364162Y-10959200D01*
X11373999Y-10959200D01*
X11442913Y-10967195D01*
G37*
G36*
X-6392087Y-11107495D02*
G01*
X-6376275Y-11114476D01*
X-6368469Y-11115713D01*
X-6335956Y-11132279D01*
X-6290894Y-11152176D01*
X-6212676Y-11230394D01*
X-6192777Y-11275462D01*
X-6176214Y-11307968D01*
X-6174978Y-11315772D01*
X-6167995Y-11331587D01*
X-6160001Y-11400502D01*
X-6160001Y-11410331D01*
X-6160000Y-11410338D01*
X-6160000Y-12315661D01*
X-6160000Y-12325499D01*
X-6167995Y-12394413D01*
X-6174979Y-12410228D01*
X-6176214Y-12418031D01*
X-6192774Y-12450530D01*
X-6212676Y-12495606D01*
X-6290894Y-12573824D01*
X-6335970Y-12593726D01*
X-6368469Y-12610286D01*
X-6376272Y-12611521D01*
X-6392087Y-12618505D01*
X-6461002Y-12626499D01*
X-6470832Y-12626499D01*
X-6470838Y-12626500D01*
X-7701162Y-12626500D01*
X-7701163Y-12626499D01*
X-7710999Y-12626500D01*
X-7779913Y-12618505D01*
X-7795728Y-12611522D01*
X-7803532Y-12610286D01*
X-7836038Y-12593723D01*
X-7881106Y-12573824D01*
X-7959324Y-12495606D01*
X-7979221Y-12450544D01*
X-7995787Y-12418031D01*
X-7997024Y-12410225D01*
X-8004005Y-12394413D01*
X-8011999Y-12325498D01*
X-8012000Y-12315667D01*
X-8012000Y-12315661D01*
X-8012000Y-11410338D01*
X-8012000Y-11410337D01*
X-8012000Y-11400501D01*
X-8004005Y-11331587D01*
X-7997024Y-11315775D01*
X-7995787Y-11307968D01*
X-7979218Y-11275447D01*
X-7959324Y-11230394D01*
X-7881106Y-11152176D01*
X-7836053Y-11132282D01*
X-7803532Y-11115713D01*
X-7795725Y-11114476D01*
X-7779913Y-11107495D01*
X-7710998Y-11099501D01*
X-7701169Y-11099500D01*
X-7701162Y-11099500D01*
X-6470838Y-11099500D01*
X-6461001Y-11099500D01*
X-6392087Y-11107495D01*
G37*
G36*
X-3876487Y-9457495D02*
G01*
X-3860675Y-9464476D01*
X-3852869Y-9465713D01*
X-3820356Y-9482279D01*
X-3775294Y-9502176D01*
X-3697076Y-9580394D01*
X-3677177Y-9625462D01*
X-3660614Y-9657968D01*
X-3659378Y-9665772D01*
X-3652395Y-9681587D01*
X-3644401Y-9750502D01*
X-3644401Y-9760331D01*
X-3644400Y-9760338D01*
X-3644400Y-10959200D01*
X-3644400Y-11000499D01*
X-3652395Y-11069413D01*
X-3659379Y-11085228D01*
X-3660614Y-11093031D01*
X-3677174Y-11125530D01*
X-3697076Y-11170606D01*
X-3775294Y-11248824D01*
X-3820370Y-11268726D01*
X-3852869Y-11285286D01*
X-3860672Y-11286521D01*
X-3876487Y-11293505D01*
X-3945402Y-11301499D01*
X-3955232Y-11301499D01*
X-3955238Y-11301500D01*
X-4860562Y-11301500D01*
X-4860563Y-11301499D01*
X-4870399Y-11301500D01*
X-4939313Y-11293505D01*
X-4955128Y-11286522D01*
X-4962932Y-11285286D01*
X-4995438Y-11268723D01*
X-5040506Y-11248824D01*
X-5118724Y-11170606D01*
X-5138621Y-11125544D01*
X-5155187Y-11093031D01*
X-5156424Y-11085225D01*
X-5163405Y-11069413D01*
X-5171399Y-11000498D01*
X-5171400Y-10990667D01*
X-5171400Y-10990661D01*
X-5171400Y-9760338D01*
X-5171400Y-9760337D01*
X-5171400Y-9750501D01*
X-5163405Y-9681587D01*
X-5156424Y-9665775D01*
X-5155187Y-9657968D01*
X-5138618Y-9625447D01*
X-5118724Y-9580394D01*
X-5040506Y-9502176D01*
X-4995453Y-9482282D01*
X-4962932Y-9465713D01*
X-4955125Y-9464476D01*
X-4939313Y-9457495D01*
X-4870398Y-9449501D01*
X-4860569Y-9449500D01*
X-4860562Y-9449500D01*
X-3955238Y-9449500D01*
X-3945401Y-9449500D01*
X-3876487Y-9457495D01*
G37*
G36*
X-901487Y-9457495D02*
G01*
X-885675Y-9464476D01*
X-877869Y-9465713D01*
X-845356Y-9482279D01*
X-800294Y-9502176D01*
X-722076Y-9580394D01*
X-702177Y-9625462D01*
X-685614Y-9657968D01*
X-684378Y-9665772D01*
X-677395Y-9681587D01*
X-669401Y-9750502D01*
X-669401Y-9760331D01*
X-669400Y-9760338D01*
X-669400Y-10959200D01*
X-669400Y-11000499D01*
X-677395Y-11069413D01*
X-684379Y-11085228D01*
X-685614Y-11093031D01*
X-702174Y-11125530D01*
X-722076Y-11170606D01*
X-800294Y-11248824D01*
X-845370Y-11268726D01*
X-877869Y-11285286D01*
X-885672Y-11286521D01*
X-901487Y-11293505D01*
X-970402Y-11301499D01*
X-980232Y-11301499D01*
X-980238Y-11301500D01*
X-1885562Y-11301500D01*
X-1885563Y-11301499D01*
X-1895399Y-11301500D01*
X-1964313Y-11293505D01*
X-1980128Y-11286522D01*
X-1987932Y-11285286D01*
X-2020438Y-11268723D01*
X-2065506Y-11248824D01*
X-2143724Y-11170606D01*
X-2163621Y-11125544D01*
X-2180187Y-11093031D01*
X-2181424Y-11085225D01*
X-2188405Y-11069413D01*
X-2196399Y-11000498D01*
X-2196400Y-10990667D01*
X-2196400Y-10990661D01*
X-2196400Y-9760338D01*
X-2196400Y-9760337D01*
X-2196400Y-9750501D01*
X-2188405Y-9681587D01*
X-2181424Y-9665775D01*
X-2180187Y-9657968D01*
X-2163618Y-9625447D01*
X-2143724Y-9580394D01*
X-2065506Y-9502176D01*
X-2020453Y-9482282D01*
X-1987932Y-9465713D01*
X-1980125Y-9464476D01*
X-1964313Y-9457495D01*
X-1895398Y-9449501D01*
X-1885569Y-9449500D01*
X-1885562Y-9449500D01*
X-980238Y-9449500D01*
X-970401Y-9449500D01*
X-901487Y-9457495D01*
G37*
G36*
X8467913Y-8007627D02*
G01*
X8483725Y-8014608D01*
X8491531Y-8015845D01*
X8524044Y-8032411D01*
X8569106Y-8052308D01*
X8647324Y-8130526D01*
X8667223Y-8175594D01*
X8683786Y-8208100D01*
X8685022Y-8215904D01*
X8692005Y-8231719D01*
X8699999Y-8300634D01*
X8699999Y-8310463D01*
X8700000Y-8310470D01*
X8700000Y-9340661D01*
X8700000Y-9550631D01*
X8692005Y-9619545D01*
X8685021Y-9635360D01*
X8683786Y-9643163D01*
X8667226Y-9675662D01*
X8647324Y-9720738D01*
X8569106Y-9798956D01*
X8524030Y-9818858D01*
X8491531Y-9835418D01*
X8483728Y-9836653D01*
X8467913Y-9843637D01*
X8398998Y-9851631D01*
X8389168Y-9851631D01*
X8389162Y-9851632D01*
X7483838Y-9851632D01*
X7483837Y-9851631D01*
X7474001Y-9851632D01*
X7405087Y-9843637D01*
X7389272Y-9836654D01*
X7381468Y-9835418D01*
X7348962Y-9818855D01*
X7303894Y-9798956D01*
X7225676Y-9720738D01*
X7205779Y-9675676D01*
X7189213Y-9643163D01*
X7187976Y-9635357D01*
X7180995Y-9619545D01*
X7173001Y-9550630D01*
X7173000Y-9540799D01*
X7173000Y-9540793D01*
X7173000Y-8310470D01*
X7173000Y-8310469D01*
X7173000Y-8300633D01*
X7180995Y-8231719D01*
X7187976Y-8215907D01*
X7189213Y-8208100D01*
X7205782Y-8175579D01*
X7225676Y-8130526D01*
X7303894Y-8052308D01*
X7348947Y-8032414D01*
X7381468Y-8015845D01*
X7389275Y-8014608D01*
X7405087Y-8007627D01*
X7474002Y-7999633D01*
X7483831Y-7999632D01*
X7483838Y-7999632D01*
X8389162Y-7999632D01*
X8398999Y-7999632D01*
X8467913Y-8007627D01*
G37*
G36*
X11442913Y-8007627D02*
G01*
X11458725Y-8014608D01*
X11466531Y-8015845D01*
X11499044Y-8032411D01*
X11544106Y-8052308D01*
X11622324Y-8130526D01*
X11642223Y-8175594D01*
X11658786Y-8208100D01*
X11660022Y-8215904D01*
X11667005Y-8231719D01*
X11674999Y-8300634D01*
X11674999Y-8310463D01*
X11675000Y-8310470D01*
X11675000Y-9340661D01*
X11675000Y-9550631D01*
X11667005Y-9619545D01*
X11660021Y-9635360D01*
X11658786Y-9643163D01*
X11642226Y-9675662D01*
X11622324Y-9720738D01*
X11544106Y-9798956D01*
X11499030Y-9818858D01*
X11466531Y-9835418D01*
X11458728Y-9836653D01*
X11442913Y-9843637D01*
X11373998Y-9851631D01*
X11364168Y-9851631D01*
X11364162Y-9851632D01*
X10458838Y-9851632D01*
X10458837Y-9851631D01*
X10449001Y-9851632D01*
X10380087Y-9843637D01*
X10364272Y-9836654D01*
X10356468Y-9835418D01*
X10323962Y-9818855D01*
X10278894Y-9798956D01*
X10200676Y-9720738D01*
X10180779Y-9675676D01*
X10164213Y-9643163D01*
X10162976Y-9635357D01*
X10155995Y-9619545D01*
X10148001Y-9550630D01*
X10148000Y-9540799D01*
X10148000Y-9540793D01*
X10148000Y-8310470D01*
X10148000Y-8310469D01*
X10148000Y-8300633D01*
X10155995Y-8231719D01*
X10162976Y-8215907D01*
X10164213Y-8208100D01*
X10180782Y-8175579D01*
X10200676Y-8130526D01*
X10278894Y-8052308D01*
X10323947Y-8032414D01*
X10356468Y-8015845D01*
X10364275Y-8014608D01*
X10380087Y-8007627D01*
X10449002Y-7999633D01*
X10458831Y-7999632D01*
X10458838Y-7999632D01*
X11364162Y-7999632D01*
X11373999Y-7999632D01*
X11442913Y-8007627D01*
G37*
G36*
X-6392087Y-8132495D02*
G01*
X-6376275Y-8139476D01*
X-6368469Y-8140713D01*
X-6335956Y-8157279D01*
X-6290894Y-8177176D01*
X-6212676Y-8255394D01*
X-6192777Y-8300462D01*
X-6176214Y-8332968D01*
X-6174978Y-8340772D01*
X-6167995Y-8356587D01*
X-6160001Y-8425502D01*
X-6160001Y-8435331D01*
X-6160000Y-8435338D01*
X-6160000Y-9340661D01*
X-6160000Y-9350499D01*
X-6167995Y-9419413D01*
X-6174979Y-9435228D01*
X-6176214Y-9443031D01*
X-6192774Y-9475530D01*
X-6212676Y-9520606D01*
X-6290894Y-9598824D01*
X-6335970Y-9618726D01*
X-6368469Y-9635286D01*
X-6376272Y-9636521D01*
X-6392087Y-9643505D01*
X-6461002Y-9651499D01*
X-6470832Y-9651499D01*
X-6470838Y-9651500D01*
X-7701162Y-9651500D01*
X-7701163Y-9651499D01*
X-7710999Y-9651500D01*
X-7779913Y-9643505D01*
X-7795728Y-9636522D01*
X-7803532Y-9635286D01*
X-7836038Y-9618723D01*
X-7881106Y-9598824D01*
X-7959324Y-9520606D01*
X-7979221Y-9475544D01*
X-7995787Y-9443031D01*
X-7997024Y-9435225D01*
X-8004005Y-9419413D01*
X-8011999Y-9350498D01*
X-8012000Y-9340667D01*
X-8012000Y-9340661D01*
X-8012000Y-8435338D01*
X-8012000Y-8435337D01*
X-8012000Y-8425501D01*
X-8004005Y-8356587D01*
X-7997024Y-8340775D01*
X-7995787Y-8332968D01*
X-7979218Y-8300447D01*
X-7959324Y-8255394D01*
X-7881106Y-8177176D01*
X-7836053Y-8157282D01*
X-7803532Y-8140713D01*
X-7795725Y-8139476D01*
X-7779913Y-8132495D01*
X-7710998Y-8124501D01*
X-7701169Y-8124500D01*
X-7701162Y-8124500D01*
X-6470838Y-8124500D01*
X-6461001Y-8124500D01*
X-6392087Y-8132495D01*
G37*
G36*
X-11209983Y-5878882D02*
G01*
X-11193438Y-5889938D01*
X-11182382Y-5906483D01*
X-11178500Y-5926000D01*
X-11178500Y-6526000D01*
X-11182382Y-6545517D01*
X-11193438Y-6562062D01*
X-11209983Y-6573118D01*
X-11229500Y-6577000D01*
X-11241821Y-6577000D01*
X-11349478Y-6598412D01*
X-11349482Y-6803582D01*
X-11241805Y-6825000D01*
X-11229500Y-6825000D01*
X-11209983Y-6828882D01*
X-11193438Y-6839938D01*
X-11182382Y-6856483D01*
X-11178500Y-6876000D01*
X-11178500Y-7476000D01*
X-11182382Y-7495517D01*
X-11193438Y-7512062D01*
X-11209983Y-7523118D01*
X-11229500Y-7527000D01*
X-11241821Y-7527000D01*
X-11349478Y-7548412D01*
X-11349482Y-7753582D01*
X-11241805Y-7775000D01*
X-11229500Y-7775000D01*
X-11209983Y-7778882D01*
X-11193438Y-7789938D01*
X-11182382Y-7806483D01*
X-11178500Y-7826000D01*
X-11178500Y-8426000D01*
X-11182382Y-8445517D01*
X-11193438Y-8462062D01*
X-11209983Y-8473118D01*
X-11229500Y-8477000D01*
X-13029500Y-8477000D01*
X-13049017Y-8473118D01*
X-13065562Y-8462062D01*
X-13076618Y-8445517D01*
X-13080500Y-8426000D01*
X-13080500Y-7826000D01*
X-13076618Y-7806483D01*
X-13065562Y-7789938D01*
X-13049017Y-7778882D01*
X-13029500Y-7775000D01*
X-13017189Y-7775000D01*
X-12909521Y-7753585D01*
X-12909521Y-7548415D01*
X-13017185Y-7527000D01*
X-13029500Y-7527000D01*
X-13049017Y-7523118D01*
X-13065562Y-7512062D01*
X-13076618Y-7495517D01*
X-13080500Y-7476000D01*
X-13080500Y-6876000D01*
X-13076618Y-6856483D01*
X-13065562Y-6839938D01*
X-13049017Y-6828882D01*
X-13029500Y-6825000D01*
X-13017189Y-6825000D01*
X-12909521Y-6803585D01*
X-12909521Y-6598415D01*
X-13017185Y-6577000D01*
X-13029500Y-6577000D01*
X-13049017Y-6573118D01*
X-13065562Y-6562062D01*
X-13076618Y-6545517D01*
X-13080500Y-6526000D01*
X-13080500Y-5926000D01*
X-13076618Y-5906483D01*
X-13065562Y-5889938D01*
X-13049017Y-5878882D01*
X-13029500Y-5875000D01*
X-11229500Y-5875000D01*
X-11209983Y-5878882D01*
G37*
G36*
X-8609983Y-7778882D02*
G01*
X-8593438Y-7789938D01*
X-8582382Y-7806483D01*
X-8578500Y-7826000D01*
X-8578500Y-8426000D01*
X-8582382Y-8445517D01*
X-8593438Y-8462062D01*
X-8609983Y-8473118D01*
X-8629500Y-8477000D01*
X-10429500Y-8477000D01*
X-10449017Y-8473118D01*
X-10465562Y-8462062D01*
X-10476618Y-8445517D01*
X-10480500Y-8426000D01*
X-10480500Y-7826000D01*
X-10476618Y-7806483D01*
X-10465562Y-7789938D01*
X-10449017Y-7778882D01*
X-10429500Y-7775000D01*
X-8629500Y-7775000D01*
X-8609983Y-7778882D01*
G37*
G36*
X8467913Y-5048061D02*
G01*
X8483725Y-5055042D01*
X8491531Y-5056279D01*
X8524044Y-5072845D01*
X8569106Y-5092742D01*
X8647324Y-5170960D01*
X8667223Y-5216028D01*
X8683786Y-5248534D01*
X8685022Y-5256338D01*
X8692005Y-5272153D01*
X8699999Y-5341068D01*
X8699999Y-5350897D01*
X8700000Y-5350904D01*
X8700000Y-6247686D01*
X8700000Y-6591065D01*
X8692005Y-6659979D01*
X8685021Y-6675794D01*
X8683786Y-6683597D01*
X8667226Y-6716096D01*
X8647324Y-6761172D01*
X8569106Y-6839390D01*
X8524030Y-6859292D01*
X8491531Y-6875852D01*
X8483728Y-6877087D01*
X8467913Y-6884071D01*
X8398998Y-6892065D01*
X8389168Y-6892065D01*
X8389162Y-6892066D01*
X7483838Y-6892066D01*
X7483837Y-6892065D01*
X7474001Y-6892066D01*
X7405087Y-6884071D01*
X7389272Y-6877088D01*
X7381468Y-6875852D01*
X7348962Y-6859289D01*
X7303894Y-6839390D01*
X7225676Y-6761172D01*
X7205779Y-6716110D01*
X7189213Y-6683597D01*
X7187976Y-6675791D01*
X7180995Y-6659979D01*
X7173001Y-6591064D01*
X7173000Y-6581233D01*
X7173000Y-6581227D01*
X7173000Y-5350904D01*
X7173000Y-5350903D01*
X7173000Y-5341067D01*
X7180995Y-5272153D01*
X7187976Y-5256341D01*
X7189213Y-5248534D01*
X7205782Y-5216013D01*
X7225676Y-5170960D01*
X7303894Y-5092742D01*
X7348947Y-5072848D01*
X7381468Y-5056279D01*
X7389275Y-5055042D01*
X7405087Y-5048061D01*
X7474002Y-5040067D01*
X7483831Y-5040066D01*
X7483838Y-5040066D01*
X8389162Y-5040066D01*
X8398999Y-5040066D01*
X8467913Y-5048061D01*
G37*
G36*
X11442913Y-5048061D02*
G01*
X11458725Y-5055042D01*
X11466531Y-5056279D01*
X11499044Y-5072845D01*
X11544106Y-5092742D01*
X11622324Y-5170960D01*
X11642223Y-5216028D01*
X11658786Y-5248534D01*
X11660022Y-5256338D01*
X11667005Y-5272153D01*
X11674999Y-5341068D01*
X11674999Y-5350897D01*
X11675000Y-5350904D01*
X11675000Y-6247686D01*
X11675000Y-6591065D01*
X11667005Y-6659979D01*
X11660021Y-6675794D01*
X11658786Y-6683597D01*
X11642226Y-6716096D01*
X11622324Y-6761172D01*
X11544106Y-6839390D01*
X11499030Y-6859292D01*
X11466531Y-6875852D01*
X11458728Y-6877087D01*
X11442913Y-6884071D01*
X11373998Y-6892065D01*
X11364168Y-6892065D01*
X11364162Y-6892066D01*
X10458838Y-6892066D01*
X10458837Y-6892065D01*
X10449001Y-6892066D01*
X10380087Y-6884071D01*
X10364272Y-6877088D01*
X10356468Y-6875852D01*
X10323962Y-6859289D01*
X10278894Y-6839390D01*
X10200676Y-6761172D01*
X10180779Y-6716110D01*
X10164213Y-6683597D01*
X10162976Y-6675791D01*
X10155995Y-6659979D01*
X10148001Y-6591064D01*
X10148000Y-6581233D01*
X10148000Y-6581227D01*
X10148000Y-5350904D01*
X10148000Y-5350903D01*
X10148000Y-5341067D01*
X10155995Y-5272153D01*
X10162976Y-5256341D01*
X10164213Y-5248534D01*
X10180782Y-5216013D01*
X10200676Y-5170960D01*
X10278894Y-5092742D01*
X10323947Y-5072848D01*
X10356468Y-5056279D01*
X10364275Y-5055042D01*
X10380087Y-5048061D01*
X10449002Y-5040067D01*
X10458831Y-5040066D01*
X10458838Y-5040066D01*
X11364162Y-5040066D01*
X11373999Y-5040066D01*
X11442913Y-5048061D01*
G37*
G36*
X-8609983Y-5878882D02*
G01*
X-8593438Y-5889938D01*
X-8582382Y-5906483D01*
X-8578500Y-5926000D01*
X-8578500Y-6526000D01*
X-8582382Y-6545517D01*
X-8593438Y-6562062D01*
X-8609983Y-6573118D01*
X-8629500Y-6577000D01*
X-10429500Y-6577000D01*
X-10449017Y-6573118D01*
X-10465562Y-6562062D01*
X-10476618Y-6545517D01*
X-10480500Y-6526000D01*
X-10480500Y-5926000D01*
X-10476618Y-5906483D01*
X-10465562Y-5889938D01*
X-10449017Y-5878882D01*
X-10429500Y-5875000D01*
X-8629500Y-5875000D01*
X-8609983Y-5878882D01*
G37*
G36*
X-4730483Y-5012882D02*
G01*
X-4713938Y-5023938D01*
X-4702882Y-5040483D01*
X-4699000Y-5060000D01*
X-4699000Y-6260000D01*
X-4702882Y-6279517D01*
X-4713938Y-6296062D01*
X-4730483Y-6307118D01*
X-4750000Y-6311000D01*
X-5950000Y-6311000D01*
X-5969517Y-6307118D01*
X-5986062Y-6296062D01*
X-5997118Y-6279517D01*
X-6001000Y-6260000D01*
X-6001000Y-5060000D01*
X-5997118Y-5040483D01*
X-5986062Y-5023938D01*
X-5969517Y-5012882D01*
X-5950000Y-5009000D01*
X-4750000Y-5009000D01*
X-4730483Y-5012882D01*
G37*
G36*
X5385118Y-4123747D02*
G01*
X5428469Y-4123747D01*
X5464979Y-4132745D01*
X5494686Y-4136093D01*
X5533108Y-4149537D01*
X5580848Y-4161304D01*
X5609077Y-4176120D01*
X5632114Y-4184181D01*
X5671051Y-4208647D01*
X5719810Y-4234238D01*
X5739401Y-4251594D01*
X5755395Y-4261644D01*
X5791505Y-4297754D01*
X5837280Y-4338307D01*
X5848917Y-4355166D01*
X5858355Y-4364604D01*
X5888024Y-4411823D01*
X5926432Y-4467465D01*
X5931676Y-4481294D01*
X5935818Y-4487885D01*
X5955403Y-4543857D01*
X5982083Y-4614206D01*
X5983179Y-4623236D01*
X5983906Y-4625313D01*
X5990017Y-4679552D01*
X6001000Y-4770000D01*
X5990016Y-4860455D01*
X5983906Y-4914686D01*
X5983179Y-4916761D01*
X5982083Y-4925794D01*
X5955398Y-4996154D01*
X5935818Y-5052114D01*
X5931677Y-5058703D01*
X5926432Y-5072535D01*
X5888017Y-5128186D01*
X5858355Y-5175395D01*
X5848919Y-5184830D01*
X5837280Y-5201693D01*
X5791496Y-5242253D01*
X5755395Y-5278355D01*
X5739405Y-5288401D01*
X5719810Y-5305762D01*
X5671041Y-5331357D01*
X5632114Y-5355818D01*
X5609083Y-5363876D01*
X5580848Y-5378696D01*
X5533099Y-5390464D01*
X5494686Y-5403906D01*
X5464986Y-5407252D01*
X5428469Y-5416253D01*
X5385109Y-5416253D01*
X5350000Y-5420209D01*
X5314891Y-5416253D01*
X5271531Y-5416253D01*
X5235014Y-5407252D01*
X5205313Y-5403906D01*
X5166897Y-5390463D01*
X5119152Y-5378696D01*
X5090918Y-5363877D01*
X5067885Y-5355818D01*
X5028952Y-5331354D01*
X4980190Y-5305762D01*
X4960596Y-5288403D01*
X4944604Y-5278355D01*
X4908494Y-5242245D01*
X4862720Y-5201693D01*
X4851082Y-5184833D01*
X4841644Y-5175395D01*
X4811970Y-5128170D01*
X4773568Y-5072535D01*
X4768323Y-5058707D01*
X4764181Y-5052114D01*
X4744588Y-4996120D01*
X4717917Y-4925794D01*
X4716820Y-4916765D01*
X4716093Y-4914686D01*
X4709969Y-4860340D01*
X4699000Y-4770000D01*
X4709968Y-4679667D01*
X4716093Y-4625313D01*
X4716820Y-4623232D01*
X4717917Y-4614206D01*
X4744583Y-4543891D01*
X4764181Y-4487885D01*
X4768324Y-4481290D01*
X4773568Y-4467465D01*
X4811963Y-4411839D01*
X4841644Y-4364604D01*
X4851085Y-4355162D01*
X4862720Y-4338307D01*
X4908486Y-4297761D01*
X4944604Y-4261644D01*
X4960600Y-4251592D01*
X4980190Y-4234238D01*
X5028942Y-4208650D01*
X5067885Y-4184181D01*
X5090924Y-4176119D01*
X5119152Y-4161304D01*
X5166887Y-4149538D01*
X5205313Y-4136093D01*
X5235021Y-4132745D01*
X5271531Y-4123747D01*
X5314882Y-4123747D01*
X5350000Y-4119790D01*
X5385118Y-4123747D01*
G37*
G36*
X-5314882Y-3233747D02*
G01*
X-5271531Y-3233747D01*
X-5235021Y-3242745D01*
X-5205314Y-3246093D01*
X-5166892Y-3259537D01*
X-5119152Y-3271304D01*
X-5090923Y-3286120D01*
X-5067886Y-3294181D01*
X-5028949Y-3318647D01*
X-4980190Y-3344238D01*
X-4960599Y-3361594D01*
X-4944605Y-3371644D01*
X-4908495Y-3407754D01*
X-4862720Y-3448307D01*
X-4851083Y-3465166D01*
X-4841645Y-3474604D01*
X-4811976Y-3521823D01*
X-4773568Y-3577465D01*
X-4768324Y-3591294D01*
X-4764182Y-3597885D01*
X-4744597Y-3653857D01*
X-4717917Y-3724206D01*
X-4716821Y-3733236D01*
X-4716094Y-3735313D01*
X-4709983Y-3789552D01*
X-4699000Y-3880000D01*
X-4709984Y-3970455D01*
X-4716094Y-4024686D01*
X-4716821Y-4026761D01*
X-4717917Y-4035794D01*
X-4744602Y-4106154D01*
X-4764182Y-4162114D01*
X-4768323Y-4168703D01*
X-4773568Y-4182535D01*
X-4811983Y-4238186D01*
X-4841645Y-4285395D01*
X-4851081Y-4294830D01*
X-4862720Y-4311693D01*
X-4908504Y-4352253D01*
X-4944605Y-4388355D01*
X-4960595Y-4398401D01*
X-4980190Y-4415762D01*
X-5028959Y-4441357D01*
X-5067886Y-4465818D01*
X-5090917Y-4473876D01*
X-5119152Y-4488696D01*
X-5166901Y-4500464D01*
X-5205314Y-4513906D01*
X-5235014Y-4517252D01*
X-5271531Y-4526253D01*
X-5314891Y-4526253D01*
X-5350000Y-4530209D01*
X-5385109Y-4526253D01*
X-5428469Y-4526253D01*
X-5464986Y-4517252D01*
X-5494687Y-4513906D01*
X-5533103Y-4500463D01*
X-5580848Y-4488696D01*
X-5609082Y-4473877D01*
X-5632115Y-4465818D01*
X-5671048Y-4441354D01*
X-5719810Y-4415762D01*
X-5739404Y-4398403D01*
X-5755396Y-4388355D01*
X-5791506Y-4352245D01*
X-5837280Y-4311693D01*
X-5848918Y-4294833D01*
X-5858356Y-4285395D01*
X-5888030Y-4238170D01*
X-5926432Y-4182535D01*
X-5931677Y-4168707D01*
X-5935819Y-4162114D01*
X-5955412Y-4106120D01*
X-5982083Y-4035794D01*
X-5983180Y-4026765D01*
X-5983907Y-4024686D01*
X-5990031Y-3970340D01*
X-6001000Y-3880000D01*
X-5990032Y-3789667D01*
X-5983907Y-3735313D01*
X-5983180Y-3733232D01*
X-5982083Y-3724206D01*
X-5955417Y-3653891D01*
X-5935819Y-3597885D01*
X-5931676Y-3591290D01*
X-5926432Y-3577465D01*
X-5888037Y-3521839D01*
X-5858356Y-3474604D01*
X-5848915Y-3465162D01*
X-5837280Y-3448307D01*
X-5791514Y-3407761D01*
X-5755396Y-3371644D01*
X-5739400Y-3361592D01*
X-5719810Y-3344238D01*
X-5671058Y-3318650D01*
X-5632115Y-3294181D01*
X-5609076Y-3286119D01*
X-5580848Y-3271304D01*
X-5533113Y-3259538D01*
X-5494687Y-3246093D01*
X-5464979Y-3242745D01*
X-5428469Y-3233747D01*
X-5385118Y-3233747D01*
X-5350000Y-3229790D01*
X-5314882Y-3233747D01*
G37*
G36*
X8467913Y-2088495D02*
G01*
X8483725Y-2095476D01*
X8491531Y-2096713D01*
X8524044Y-2113279D01*
X8569106Y-2133176D01*
X8647324Y-2211394D01*
X8667223Y-2256462D01*
X8683786Y-2288968D01*
X8685022Y-2296772D01*
X8692005Y-2312587D01*
X8699999Y-2381502D01*
X8699999Y-2391331D01*
X8700000Y-2391338D01*
X8700000Y-3031308D01*
X8700000Y-3631499D01*
X8692005Y-3700413D01*
X8685021Y-3716228D01*
X8683786Y-3724031D01*
X8667226Y-3756530D01*
X8647324Y-3801606D01*
X8569106Y-3879824D01*
X8524030Y-3899726D01*
X8491531Y-3916286D01*
X8483728Y-3917521D01*
X8467913Y-3924505D01*
X8398998Y-3932499D01*
X8389168Y-3932499D01*
X8389162Y-3932500D01*
X7483838Y-3932500D01*
X7483837Y-3932499D01*
X7474001Y-3932500D01*
X7405087Y-3924505D01*
X7389272Y-3917522D01*
X7381468Y-3916286D01*
X7348962Y-3899723D01*
X7303894Y-3879824D01*
X7225676Y-3801606D01*
X7205779Y-3756544D01*
X7189213Y-3724031D01*
X7187976Y-3716225D01*
X7180995Y-3700413D01*
X7173001Y-3631498D01*
X7173000Y-3621667D01*
X7173000Y-3621661D01*
X7173000Y-2391338D01*
X7173000Y-2391337D01*
X7173000Y-2381501D01*
X7180995Y-2312587D01*
X7187976Y-2296775D01*
X7189213Y-2288968D01*
X7205782Y-2256447D01*
X7225676Y-2211394D01*
X7303894Y-2133176D01*
X7348947Y-2113282D01*
X7381468Y-2096713D01*
X7389275Y-2095476D01*
X7405087Y-2088495D01*
X7474002Y-2080501D01*
X7483831Y-2080500D01*
X7483838Y-2080500D01*
X8389162Y-2080500D01*
X8398999Y-2080500D01*
X8467913Y-2088495D01*
G37*
G36*
X11442913Y-2088495D02*
G01*
X11458725Y-2095476D01*
X11466531Y-2096713D01*
X11499044Y-2113279D01*
X11544106Y-2133176D01*
X11622324Y-2211394D01*
X11642223Y-2256462D01*
X11658786Y-2288968D01*
X11660022Y-2296772D01*
X11667005Y-2312587D01*
X11674999Y-2381502D01*
X11674999Y-2391331D01*
X11675000Y-2391338D01*
X11675000Y-3031308D01*
X11675000Y-3631499D01*
X11667005Y-3700413D01*
X11660021Y-3716228D01*
X11658786Y-3724031D01*
X11642226Y-3756530D01*
X11622324Y-3801606D01*
X11544106Y-3879824D01*
X11499030Y-3899726D01*
X11466531Y-3916286D01*
X11458728Y-3917521D01*
X11442913Y-3924505D01*
X11373998Y-3932499D01*
X11364168Y-3932499D01*
X11364162Y-3932500D01*
X10458838Y-3932500D01*
X10458837Y-3932499D01*
X10449001Y-3932500D01*
X10380087Y-3924505D01*
X10364272Y-3917522D01*
X10356468Y-3916286D01*
X10323962Y-3899723D01*
X10278894Y-3879824D01*
X10200676Y-3801606D01*
X10180779Y-3756544D01*
X10164213Y-3724031D01*
X10162976Y-3716225D01*
X10155995Y-3700413D01*
X10148001Y-3631498D01*
X10148000Y-3621667D01*
X10148000Y-3621661D01*
X10148000Y-2391338D01*
X10148000Y-2391337D01*
X10148000Y-2381501D01*
X10155995Y-2312587D01*
X10162976Y-2296775D01*
X10164213Y-2288968D01*
X10180782Y-2256447D01*
X10200676Y-2211394D01*
X10278894Y-2133176D01*
X10323947Y-2113282D01*
X10356468Y-2096713D01*
X10364275Y-2095476D01*
X10380087Y-2088495D01*
X10449002Y-2080501D01*
X10458831Y-2080500D01*
X10458838Y-2080500D01*
X11364162Y-2080500D01*
X11373999Y-2080500D01*
X11442913Y-2088495D01*
G37*
G36*
X5385118Y-2343747D02*
G01*
X5428469Y-2343747D01*
X5464979Y-2352745D01*
X5494686Y-2356093D01*
X5533108Y-2369537D01*
X5580848Y-2381304D01*
X5609077Y-2396120D01*
X5632114Y-2404181D01*
X5671051Y-2428647D01*
X5719810Y-2454238D01*
X5739401Y-2471594D01*
X5755395Y-2481644D01*
X5791505Y-2517754D01*
X5837280Y-2558307D01*
X5848917Y-2575166D01*
X5858355Y-2584604D01*
X5888024Y-2631823D01*
X5926432Y-2687465D01*
X5931676Y-2701294D01*
X5935818Y-2707885D01*
X5955403Y-2763857D01*
X5982083Y-2834206D01*
X5983179Y-2843236D01*
X5983906Y-2845313D01*
X5990017Y-2899552D01*
X6001000Y-2990000D01*
X5990016Y-3080455D01*
X5983906Y-3134686D01*
X5983179Y-3136761D01*
X5982083Y-3145794D01*
X5955398Y-3216154D01*
X5935818Y-3272114D01*
X5931677Y-3278703D01*
X5926432Y-3292535D01*
X5888017Y-3348186D01*
X5858355Y-3395395D01*
X5848919Y-3404830D01*
X5837280Y-3421693D01*
X5791496Y-3462253D01*
X5755395Y-3498355D01*
X5739405Y-3508401D01*
X5719810Y-3525762D01*
X5671041Y-3551357D01*
X5632114Y-3575818D01*
X5609083Y-3583876D01*
X5580848Y-3598696D01*
X5533099Y-3610464D01*
X5494686Y-3623906D01*
X5464986Y-3627252D01*
X5428469Y-3636253D01*
X5385109Y-3636253D01*
X5350000Y-3640209D01*
X5314891Y-3636253D01*
X5271531Y-3636253D01*
X5235014Y-3627252D01*
X5205313Y-3623906D01*
X5166897Y-3610463D01*
X5119152Y-3598696D01*
X5090918Y-3583877D01*
X5067885Y-3575818D01*
X5028952Y-3551354D01*
X4980190Y-3525762D01*
X4960596Y-3508403D01*
X4944604Y-3498355D01*
X4908494Y-3462245D01*
X4862720Y-3421693D01*
X4851082Y-3404833D01*
X4841644Y-3395395D01*
X4811970Y-3348170D01*
X4773568Y-3292535D01*
X4768323Y-3278707D01*
X4764181Y-3272114D01*
X4744588Y-3216120D01*
X4717917Y-3145794D01*
X4716820Y-3136765D01*
X4716093Y-3134686D01*
X4709969Y-3080340D01*
X4699000Y-2990000D01*
X4709968Y-2899667D01*
X4716093Y-2845313D01*
X4716820Y-2843232D01*
X4717917Y-2834206D01*
X4744583Y-2763891D01*
X4764181Y-2707885D01*
X4768324Y-2701290D01*
X4773568Y-2687465D01*
X4811963Y-2631839D01*
X4841644Y-2584604D01*
X4851085Y-2575162D01*
X4862720Y-2558307D01*
X4908486Y-2517761D01*
X4944604Y-2481644D01*
X4960600Y-2471592D01*
X4980190Y-2454238D01*
X5028942Y-2428650D01*
X5067885Y-2404181D01*
X5090924Y-2396119D01*
X5119152Y-2381304D01*
X5166887Y-2369538D01*
X5205313Y-2356093D01*
X5235021Y-2352745D01*
X5271531Y-2343747D01*
X5314882Y-2343747D01*
X5350000Y-2339790D01*
X5385118Y-2343747D01*
G37*
G36*
X-10636567Y3618356D02*
G01*
X-10590194Y3611011D01*
X-10584143Y3607928D01*
X-10569379Y3604991D01*
X-10540475Y3585677D01*
X-10513689Y3572029D01*
X-10500882Y3559222D01*
X-10479839Y3545161D01*
X-10465779Y3524119D01*
X-10452972Y3511312D01*
X-10439326Y3484529D01*
X-10420009Y3455621D01*
X-10417073Y3440856D01*
X-10413990Y3434807D01*
X-10406649Y3388455D01*
X-10399000Y3350000D01*
X-10399000Y2900000D01*
X-10406650Y2861542D01*
X-10413990Y2815194D01*
X-10417072Y2809146D01*
X-10420009Y2794379D01*
X-10439328Y2765468D01*
X-10452972Y2738689D01*
X-10465777Y2725885D01*
X-10479839Y2704839D01*
X-10500885Y2690777D01*
X-10513689Y2677972D01*
X-10540468Y2664328D01*
X-10569379Y2645009D01*
X-10584146Y2642072D01*
X-10590194Y2638990D01*
X-10636544Y2631650D01*
X-10675000Y2624000D01*
X-10989387Y2624000D01*
X-10996997Y2381856D01*
X-10903911Y2376000D01*
X-10900000Y2376000D01*
X-10896958Y2375563D01*
X-10841186Y2372054D01*
X-10801268Y2361805D01*
X-10758852Y2355706D01*
X-10734882Y2344759D01*
X-10715934Y2339894D01*
X-10675234Y2317519D01*
X-10629139Y2296468D01*
X-10615596Y2284733D01*
X-10606105Y2279515D01*
X-10564676Y2240610D01*
X-10521369Y2203085D01*
X-10516277Y2195161D01*
X-10514737Y2193715D01*
X-10466607Y2117874D01*
X-10444274Y2083123D01*
X-10427786Y2026970D01*
X-10408850Y1968692D01*
X-10408353Y1960787D01*
X-10404099Y1946300D01*
X-10404099Y1893181D01*
X-10400980Y1843607D01*
X-10404099Y1827258D01*
X-10404099Y1803700D01*
X-10416927Y1760013D01*
X-10424466Y1720492D01*
X-10435278Y1697517D01*
X-10444274Y1666877D01*
X-10464519Y1635377D01*
X-10477832Y1607083D01*
X-10499653Y1580707D01*
X-10521369Y1546915D01*
X-10543399Y1527827D01*
X-10557723Y1510511D01*
X-10592754Y1485060D01*
X-10629139Y1453532D01*
X-10648012Y1444914D01*
X-10659122Y1436841D01*
X-10708475Y1417301D01*
X-10758852Y1394294D01*
X-10770990Y1392549D01*
X-10775654Y1390702D01*
X-10843058Y1382188D01*
X-10900000Y1374000D01*
X-10907866Y1374000D01*
X-11017953Y1360093D01*
X-11010808Y1132725D01*
X-10903910Y1126000D01*
X-10900000Y1126000D01*
X-10896959Y1125563D01*
X-10841186Y1122054D01*
X-10801268Y1111805D01*
X-10758852Y1105706D01*
X-10734882Y1094759D01*
X-10715934Y1089894D01*
X-10675234Y1067519D01*
X-10629139Y1046468D01*
X-10615596Y1034733D01*
X-10606105Y1029515D01*
X-10564676Y990610D01*
X-10521369Y953085D01*
X-10516277Y945161D01*
X-10514737Y943715D01*
X-10466607Y867874D01*
X-10444274Y833123D01*
X-10427786Y776970D01*
X-10408850Y718692D01*
X-10408353Y710787D01*
X-10404099Y696300D01*
X-10404099Y643181D01*
X-10400980Y593607D01*
X-10404099Y577258D01*
X-10404099Y553700D01*
X-10416927Y510013D01*
X-10424466Y470492D01*
X-10435278Y447517D01*
X-10444274Y416877D01*
X-10464519Y385377D01*
X-10477832Y357083D01*
X-10499653Y330707D01*
X-10521369Y296915D01*
X-10543399Y277827D01*
X-10557723Y260511D01*
X-10592754Y235060D01*
X-10629139Y203532D01*
X-10648012Y194914D01*
X-10659122Y186841D01*
X-10708475Y167301D01*
X-10758852Y144294D01*
X-10770990Y142549D01*
X-10775654Y140702D01*
X-10843058Y132188D01*
X-10900000Y124000D01*
X-10907866Y124000D01*
X-11017953Y110093D01*
X-11010808Y-117275D01*
X-10903910Y-124000D01*
X-10900000Y-124000D01*
X-10896959Y-124437D01*
X-10841186Y-127946D01*
X-10801268Y-138195D01*
X-10758852Y-144294D01*
X-10734882Y-155241D01*
X-10715934Y-160106D01*
X-10675234Y-182481D01*
X-10629139Y-203532D01*
X-10615596Y-215267D01*
X-10606105Y-220485D01*
X-10564676Y-259390D01*
X-10521369Y-296915D01*
X-10516277Y-304839D01*
X-10514737Y-306285D01*
X-10466607Y-382126D01*
X-10444274Y-416877D01*
X-10427786Y-473030D01*
X-10408850Y-531308D01*
X-10408353Y-539213D01*
X-10404099Y-553700D01*
X-10404099Y-606819D01*
X-10400980Y-656393D01*
X-10404099Y-672742D01*
X-10404099Y-696300D01*
X-10416927Y-739987D01*
X-10424466Y-779508D01*
X-10435278Y-802483D01*
X-10444274Y-833123D01*
X-10464519Y-864623D01*
X-10477832Y-892917D01*
X-10499653Y-919293D01*
X-10521369Y-953085D01*
X-10543399Y-972173D01*
X-10557723Y-989489D01*
X-10592754Y-1014940D01*
X-10629139Y-1046468D01*
X-10648012Y-1055086D01*
X-10659122Y-1063159D01*
X-10708475Y-1082699D01*
X-10758852Y-1105706D01*
X-10770990Y-1107451D01*
X-10775654Y-1109298D01*
X-10843058Y-1117812D01*
X-10900000Y-1126000D01*
X-10907866Y-1126000D01*
X-11017953Y-1139907D01*
X-11010808Y-1367275D01*
X-10903910Y-1374000D01*
X-10900000Y-1374000D01*
X-10896959Y-1374437D01*
X-10841186Y-1377946D01*
X-10801268Y-1388195D01*
X-10758852Y-1394294D01*
X-10734882Y-1405241D01*
X-10715934Y-1410106D01*
X-10675234Y-1432481D01*
X-10629139Y-1453532D01*
X-10615596Y-1465267D01*
X-10606105Y-1470485D01*
X-10564676Y-1509390D01*
X-10521369Y-1546915D01*
X-10516277Y-1554839D01*
X-10514737Y-1556285D01*
X-10466607Y-1632126D01*
X-10444274Y-1666877D01*
X-10427786Y-1723030D01*
X-10408850Y-1781308D01*
X-10408353Y-1789213D01*
X-10404099Y-1803700D01*
X-10404099Y-1856819D01*
X-10400980Y-1906393D01*
X-10404099Y-1922742D01*
X-10404099Y-1946300D01*
X-10416927Y-1989987D01*
X-10424466Y-2029508D01*
X-10435278Y-2052483D01*
X-10444274Y-2083123D01*
X-10464519Y-2114623D01*
X-10477832Y-2142917D01*
X-10499653Y-2169293D01*
X-10521369Y-2203085D01*
X-10543399Y-2222173D01*
X-10557723Y-2239489D01*
X-10592754Y-2264940D01*
X-10629139Y-2296468D01*
X-10648012Y-2305086D01*
X-10659122Y-2313159D01*
X-10708475Y-2332699D01*
X-10758852Y-2355706D01*
X-10770990Y-2357451D01*
X-10775654Y-2359298D01*
X-10843058Y-2367812D01*
X-10900000Y-2376000D01*
X-10907866Y-2376000D01*
X-11017953Y-2389907D01*
X-11010808Y-2617275D01*
X-10903910Y-2624000D01*
X-10900000Y-2624000D01*
X-10896959Y-2624437D01*
X-10841186Y-2627946D01*
X-10801268Y-2638195D01*
X-10758852Y-2644294D01*
X-10734882Y-2655241D01*
X-10715934Y-2660106D01*
X-10675234Y-2682481D01*
X-10629139Y-2703532D01*
X-10615596Y-2715267D01*
X-10606105Y-2720485D01*
X-10564676Y-2759390D01*
X-10521369Y-2796915D01*
X-10516277Y-2804839D01*
X-10514737Y-2806285D01*
X-10466607Y-2882126D01*
X-10444274Y-2916877D01*
X-10427786Y-2973030D01*
X-10408850Y-3031308D01*
X-10408353Y-3039213D01*
X-10404099Y-3053700D01*
X-10404099Y-3106819D01*
X-10400980Y-3156393D01*
X-10404099Y-3172742D01*
X-10404099Y-3196300D01*
X-10416927Y-3239987D01*
X-10424466Y-3279508D01*
X-10435278Y-3302483D01*
X-10444274Y-3333123D01*
X-10464519Y-3364623D01*
X-10477832Y-3392917D01*
X-10499653Y-3419293D01*
X-10521369Y-3453085D01*
X-10543399Y-3472173D01*
X-10557723Y-3489489D01*
X-10592754Y-3514940D01*
X-10629139Y-3546468D01*
X-10648012Y-3555086D01*
X-10659122Y-3563159D01*
X-10708475Y-3582699D01*
X-10758852Y-3605706D01*
X-10770990Y-3607451D01*
X-10775654Y-3609298D01*
X-10843073Y-3617815D01*
X-10900000Y-3626000D01*
X-10907862Y-3626000D01*
X-11396077Y-3626000D01*
X-11400000Y-3626000D01*
X-11403053Y-3625561D01*
X-11458815Y-3622053D01*
X-11498726Y-3611805D01*
X-11541148Y-3605706D01*
X-11565123Y-3594757D01*
X-11584067Y-3589893D01*
X-11624763Y-3567520D01*
X-11670861Y-3546468D01*
X-11684407Y-3534731D01*
X-11693896Y-3529514D01*
X-11735325Y-3490610D01*
X-11778631Y-3453085D01*
X-11783724Y-3445160D01*
X-11785264Y-3443714D01*
X-11833423Y-3367827D01*
X-11855726Y-3333123D01*
X-11872209Y-3276990D01*
X-11891151Y-3218691D01*
X-11891649Y-3210782D01*
X-11895901Y-3196300D01*
X-11895901Y-3143194D01*
X-11899021Y-3093606D01*
X-11895901Y-3077250D01*
X-11895901Y-3053700D01*
X-11883077Y-3010023D01*
X-11875535Y-2970491D01*
X-11864721Y-2947508D01*
X-11855726Y-2916877D01*
X-11835488Y-2885385D01*
X-11822169Y-2857082D01*
X-11800342Y-2830696D01*
X-11778631Y-2796915D01*
X-11756608Y-2777831D01*
X-11742278Y-2760510D01*
X-11707234Y-2735049D01*
X-11670861Y-2703532D01*
X-11651996Y-2694916D01*
X-11640879Y-2686840D01*
X-11591503Y-2667290D01*
X-11541148Y-2644294D01*
X-11529017Y-2642549D01*
X-11524347Y-2640701D01*
X-11456865Y-2632175D01*
X-11400000Y-2624000D01*
X-11392147Y-2624000D01*
X-11282047Y-2610091D01*
X-11289194Y-2382722D01*
X-11396054Y-2376000D01*
X-11400000Y-2376000D01*
X-11403070Y-2375558D01*
X-11458815Y-2372052D01*
X-11498720Y-2361806D01*
X-11541148Y-2355706D01*
X-11565124Y-2344756D01*
X-11584067Y-2339893D01*
X-11624763Y-2317520D01*
X-11670861Y-2296468D01*
X-11684407Y-2284731D01*
X-11693896Y-2279514D01*
X-11735325Y-2240610D01*
X-11778631Y-2203085D01*
X-11783724Y-2195160D01*
X-11785264Y-2193714D01*
X-11833423Y-2117827D01*
X-11855726Y-2083123D01*
X-11872209Y-2026990D01*
X-11891151Y-1968691D01*
X-11891649Y-1960782D01*
X-11895901Y-1946300D01*
X-11895901Y-1893194D01*
X-11899021Y-1843606D01*
X-11895901Y-1827250D01*
X-11895901Y-1803700D01*
X-11883077Y-1760023D01*
X-11875535Y-1720491D01*
X-11864721Y-1697508D01*
X-11855726Y-1666877D01*
X-11835488Y-1635385D01*
X-11822169Y-1607082D01*
X-11800342Y-1580696D01*
X-11778631Y-1546915D01*
X-11756608Y-1527831D01*
X-11742278Y-1510510D01*
X-11707234Y-1485049D01*
X-11670861Y-1453532D01*
X-11651996Y-1444916D01*
X-11640879Y-1436840D01*
X-11591503Y-1417290D01*
X-11541148Y-1394294D01*
X-11529017Y-1392549D01*
X-11524347Y-1390701D01*
X-11456865Y-1382175D01*
X-11400000Y-1374000D01*
X-11392147Y-1374000D01*
X-11282047Y-1360091D01*
X-11289194Y-1132722D01*
X-11396054Y-1126000D01*
X-11400000Y-1126000D01*
X-11403070Y-1125558D01*
X-11458815Y-1122052D01*
X-11498720Y-1111806D01*
X-11541148Y-1105706D01*
X-11565124Y-1094756D01*
X-11584067Y-1089893D01*
X-11624763Y-1067520D01*
X-11670861Y-1046468D01*
X-11684407Y-1034731D01*
X-11693896Y-1029514D01*
X-11735325Y-990610D01*
X-11778631Y-953085D01*
X-11783724Y-945160D01*
X-11785264Y-943714D01*
X-11833423Y-867827D01*
X-11855726Y-833123D01*
X-11872209Y-776990D01*
X-11891151Y-718691D01*
X-11891649Y-710782D01*
X-11895901Y-696300D01*
X-11895901Y-643194D01*
X-11899021Y-593606D01*
X-11895901Y-577250D01*
X-11895901Y-553700D01*
X-11883077Y-510023D01*
X-11875535Y-470491D01*
X-11864721Y-447508D01*
X-11855726Y-416877D01*
X-11835488Y-385385D01*
X-11822169Y-357082D01*
X-11800342Y-330696D01*
X-11778631Y-296915D01*
X-11756608Y-277831D01*
X-11742278Y-260510D01*
X-11707234Y-235049D01*
X-11670861Y-203532D01*
X-11651996Y-194916D01*
X-11640879Y-186840D01*
X-11591503Y-167290D01*
X-11541148Y-144294D01*
X-11529017Y-142549D01*
X-11524347Y-140701D01*
X-11456865Y-132175D01*
X-11400000Y-124000D01*
X-11392147Y-124000D01*
X-11282047Y-110091D01*
X-11289194Y117278D01*
X-11396054Y124000D01*
X-11400000Y124000D01*
X-11403070Y124442D01*
X-11458815Y127948D01*
X-11498720Y138194D01*
X-11541148Y144294D01*
X-11565124Y155244D01*
X-11584067Y160107D01*
X-11624763Y182480D01*
X-11670861Y203532D01*
X-11684407Y215269D01*
X-11693896Y220486D01*
X-11735325Y259390D01*
X-11778631Y296915D01*
X-11783724Y304840D01*
X-11785264Y306286D01*
X-11833423Y382173D01*
X-11855726Y416877D01*
X-11872209Y473010D01*
X-11891151Y531309D01*
X-11891649Y539218D01*
X-11895901Y553700D01*
X-11895901Y606806D01*
X-11899021Y656394D01*
X-11895901Y672750D01*
X-11895901Y696300D01*
X-11883077Y739977D01*
X-11875535Y779509D01*
X-11864721Y802492D01*
X-11855726Y833123D01*
X-11835488Y864615D01*
X-11822169Y892918D01*
X-11800342Y919304D01*
X-11778631Y953085D01*
X-11756608Y972169D01*
X-11742278Y989490D01*
X-11707234Y1014951D01*
X-11670861Y1046468D01*
X-11651996Y1055084D01*
X-11640879Y1063160D01*
X-11591503Y1082710D01*
X-11541148Y1105706D01*
X-11529017Y1107451D01*
X-11524347Y1109299D01*
X-11456865Y1117825D01*
X-11400000Y1126000D01*
X-11392147Y1126000D01*
X-11282047Y1139909D01*
X-11289194Y1367278D01*
X-11396054Y1374000D01*
X-11400000Y1374000D01*
X-11403070Y1374442D01*
X-11458815Y1377948D01*
X-11498720Y1388194D01*
X-11541148Y1394294D01*
X-11565124Y1405244D01*
X-11584067Y1410107D01*
X-11624763Y1432480D01*
X-11670861Y1453532D01*
X-11684407Y1465269D01*
X-11693896Y1470486D01*
X-11735325Y1509390D01*
X-11778631Y1546915D01*
X-11783724Y1554840D01*
X-11785264Y1556286D01*
X-11833423Y1632173D01*
X-11855726Y1666877D01*
X-11872209Y1723010D01*
X-11891151Y1781309D01*
X-11891649Y1789218D01*
X-11895901Y1803700D01*
X-11895901Y1856806D01*
X-11899021Y1906394D01*
X-11895901Y1922750D01*
X-11895901Y1946300D01*
X-11883077Y1989977D01*
X-11875535Y2029509D01*
X-11864721Y2052492D01*
X-11855726Y2083123D01*
X-11835488Y2114615D01*
X-11822169Y2142918D01*
X-11800342Y2169304D01*
X-11778631Y2203085D01*
X-11756608Y2222169D01*
X-11742278Y2239490D01*
X-11707234Y2264951D01*
X-11670861Y2296468D01*
X-11651996Y2305084D01*
X-11640879Y2313160D01*
X-11591503Y2332710D01*
X-11541148Y2355706D01*
X-11529017Y2357451D01*
X-11524347Y2359299D01*
X-11456868Y2367824D01*
X-11400000Y2376000D01*
X-11392146Y2376000D01*
X-11283692Y2389701D01*
X-11298434Y2624000D01*
X-11625000Y2624000D01*
X-11663455Y2631649D01*
X-11709807Y2638990D01*
X-11715856Y2642073D01*
X-11730621Y2645009D01*
X-11759529Y2664326D01*
X-11786312Y2677972D01*
X-11799119Y2690779D01*
X-11820161Y2704839D01*
X-11834222Y2725882D01*
X-11847029Y2738689D01*
X-11860677Y2765475D01*
X-11879991Y2794379D01*
X-11882928Y2809143D01*
X-11886011Y2815194D01*
X-11893356Y2861567D01*
X-11901000Y2900000D01*
X-11901000Y3350000D01*
X-11893356Y3388430D01*
X-11886011Y3434807D01*
X-11882928Y3440859D01*
X-11879991Y3455621D01*
X-11860680Y3484523D01*
X-11847029Y3511312D01*
X-11834220Y3524122D01*
X-11820161Y3545161D01*
X-11799122Y3559220D01*
X-11786312Y3572029D01*
X-11759523Y3585680D01*
X-11730621Y3604991D01*
X-11715859Y3607928D01*
X-11709807Y3611011D01*
X-11663430Y3618356D01*
X-11625000Y3626000D01*
X-10675000Y3626000D01*
X-10636567Y3618356D01*
G37*
G36*
X-5314882Y-1453747D02*
G01*
X-5271531Y-1453747D01*
X-5235021Y-1462745D01*
X-5205314Y-1466093D01*
X-5166892Y-1479537D01*
X-5119152Y-1491304D01*
X-5090923Y-1506120D01*
X-5067886Y-1514181D01*
X-5028949Y-1538647D01*
X-4980190Y-1564238D01*
X-4960599Y-1581594D01*
X-4944605Y-1591644D01*
X-4908495Y-1627754D01*
X-4862720Y-1668307D01*
X-4851083Y-1685166D01*
X-4841645Y-1694604D01*
X-4811976Y-1741823D01*
X-4773568Y-1797465D01*
X-4768324Y-1811294D01*
X-4764182Y-1817885D01*
X-4744597Y-1873857D01*
X-4717917Y-1944206D01*
X-4716821Y-1953236D01*
X-4716094Y-1955313D01*
X-4709983Y-2009552D01*
X-4699000Y-2100000D01*
X-4709984Y-2190455D01*
X-4716094Y-2244686D01*
X-4716821Y-2246761D01*
X-4717917Y-2255794D01*
X-4744602Y-2326154D01*
X-4764182Y-2382114D01*
X-4768323Y-2388703D01*
X-4773568Y-2402535D01*
X-4811983Y-2458186D01*
X-4841645Y-2505395D01*
X-4851081Y-2514830D01*
X-4862720Y-2531693D01*
X-4908504Y-2572253D01*
X-4944605Y-2608355D01*
X-4960595Y-2618401D01*
X-4980190Y-2635762D01*
X-5028959Y-2661357D01*
X-5067886Y-2685818D01*
X-5090917Y-2693876D01*
X-5119152Y-2708696D01*
X-5166901Y-2720464D01*
X-5205314Y-2733906D01*
X-5235014Y-2737252D01*
X-5271531Y-2746253D01*
X-5314891Y-2746253D01*
X-5350000Y-2750209D01*
X-5385109Y-2746253D01*
X-5428469Y-2746253D01*
X-5464986Y-2737252D01*
X-5494687Y-2733906D01*
X-5533103Y-2720463D01*
X-5580848Y-2708696D01*
X-5609082Y-2693877D01*
X-5632115Y-2685818D01*
X-5671048Y-2661354D01*
X-5719810Y-2635762D01*
X-5739404Y-2618403D01*
X-5755396Y-2608355D01*
X-5791506Y-2572245D01*
X-5837280Y-2531693D01*
X-5848918Y-2514833D01*
X-5858356Y-2505395D01*
X-5888030Y-2458170D01*
X-5926432Y-2402535D01*
X-5931677Y-2388707D01*
X-5935819Y-2382114D01*
X-5955412Y-2326120D01*
X-5982083Y-2255794D01*
X-5983180Y-2246765D01*
X-5983907Y-2244686D01*
X-5990031Y-2190340D01*
X-6001000Y-2100000D01*
X-5990032Y-2009667D01*
X-5983907Y-1955313D01*
X-5983180Y-1953232D01*
X-5982083Y-1944206D01*
X-5955417Y-1873891D01*
X-5935819Y-1817885D01*
X-5931676Y-1811290D01*
X-5926432Y-1797465D01*
X-5888037Y-1741839D01*
X-5858356Y-1694604D01*
X-5848915Y-1685162D01*
X-5837280Y-1668307D01*
X-5791514Y-1627761D01*
X-5755396Y-1591644D01*
X-5739400Y-1581592D01*
X-5719810Y-1564238D01*
X-5671058Y-1538650D01*
X-5632115Y-1514181D01*
X-5609076Y-1506119D01*
X-5580848Y-1491304D01*
X-5533113Y-1479538D01*
X-5494687Y-1466093D01*
X-5464979Y-1462745D01*
X-5428469Y-1453747D01*
X-5385118Y-1453747D01*
X-5350000Y-1449790D01*
X-5314882Y-1453747D01*
G37*
G36*
X5385118Y-563747D02*
G01*
X5428469Y-563747D01*
X5464979Y-572745D01*
X5494686Y-576093D01*
X5533108Y-589537D01*
X5580848Y-601304D01*
X5609077Y-616120D01*
X5632114Y-624181D01*
X5671051Y-648647D01*
X5719810Y-674238D01*
X5739401Y-691594D01*
X5755395Y-701644D01*
X5791505Y-737754D01*
X5837280Y-778307D01*
X5848917Y-795166D01*
X5858355Y-804604D01*
X5888024Y-851823D01*
X5926432Y-907465D01*
X5931676Y-921294D01*
X5935818Y-927885D01*
X5955403Y-983857D01*
X5982083Y-1054206D01*
X5983179Y-1063236D01*
X5983906Y-1065313D01*
X5990017Y-1119552D01*
X6001000Y-1210000D01*
X5990016Y-1300455D01*
X5983906Y-1354686D01*
X5983179Y-1356761D01*
X5982083Y-1365794D01*
X5955398Y-1436154D01*
X5935818Y-1492114D01*
X5931677Y-1498703D01*
X5926432Y-1512535D01*
X5888017Y-1568186D01*
X5858355Y-1615395D01*
X5848919Y-1624830D01*
X5837280Y-1641693D01*
X5791496Y-1682253D01*
X5755395Y-1718355D01*
X5739405Y-1728401D01*
X5719810Y-1745762D01*
X5671041Y-1771357D01*
X5632114Y-1795818D01*
X5609083Y-1803876D01*
X5580848Y-1818696D01*
X5533099Y-1830464D01*
X5494686Y-1843906D01*
X5464986Y-1847252D01*
X5428469Y-1856253D01*
X5385109Y-1856253D01*
X5350000Y-1860209D01*
X5314891Y-1856253D01*
X5271531Y-1856253D01*
X5235014Y-1847252D01*
X5205313Y-1843906D01*
X5166897Y-1830463D01*
X5119152Y-1818696D01*
X5090918Y-1803877D01*
X5067885Y-1795818D01*
X5028952Y-1771354D01*
X4980190Y-1745762D01*
X4960596Y-1728403D01*
X4944604Y-1718355D01*
X4908494Y-1682245D01*
X4862720Y-1641693D01*
X4851082Y-1624833D01*
X4841644Y-1615395D01*
X4811970Y-1568170D01*
X4773568Y-1512535D01*
X4768323Y-1498707D01*
X4764181Y-1492114D01*
X4744588Y-1436120D01*
X4717917Y-1365794D01*
X4716820Y-1356765D01*
X4716093Y-1354686D01*
X4709969Y-1300340D01*
X4699000Y-1210000D01*
X4709968Y-1119667D01*
X4716093Y-1065313D01*
X4716820Y-1063232D01*
X4717917Y-1054206D01*
X4744583Y-983891D01*
X4764181Y-927885D01*
X4768324Y-921290D01*
X4773568Y-907465D01*
X4811963Y-851839D01*
X4841644Y-804604D01*
X4851085Y-795162D01*
X4862720Y-778307D01*
X4908486Y-737761D01*
X4944604Y-701644D01*
X4960600Y-691592D01*
X4980190Y-674238D01*
X5028942Y-648650D01*
X5067885Y-624181D01*
X5090924Y-616119D01*
X5119152Y-601304D01*
X5166887Y-589538D01*
X5205313Y-576093D01*
X5235021Y-572745D01*
X5271531Y-563747D01*
X5314882Y-563747D01*
X5350000Y-559790D01*
X5385118Y-563747D01*
G37*
G36*
X-7535087Y-258495D02*
G01*
X-7519275Y-265476D01*
X-7511469Y-266713D01*
X-7478956Y-283279D01*
X-7433894Y-303176D01*
X-7355676Y-381394D01*
X-7335777Y-426462D01*
X-7319214Y-458968D01*
X-7317978Y-466772D01*
X-7310995Y-482587D01*
X-7303001Y-551502D01*
X-7303001Y-561331D01*
X-7303000Y-561338D01*
X-7303000Y-1029514D01*
X-7303000Y-1476499D01*
X-7310995Y-1545413D01*
X-7317979Y-1561228D01*
X-7319214Y-1569031D01*
X-7335774Y-1601530D01*
X-7355676Y-1646606D01*
X-7433894Y-1724824D01*
X-7478970Y-1744726D01*
X-7511469Y-1761286D01*
X-7519272Y-1762521D01*
X-7535087Y-1769505D01*
X-7604002Y-1777499D01*
X-7613832Y-1777499D01*
X-7613838Y-1777500D01*
X-8844162Y-1777500D01*
X-8844163Y-1777499D01*
X-8853999Y-1777500D01*
X-8922913Y-1769505D01*
X-8938728Y-1762522D01*
X-8946532Y-1761286D01*
X-8979038Y-1744723D01*
X-9024106Y-1724824D01*
X-9102324Y-1646606D01*
X-9122221Y-1601544D01*
X-9138787Y-1569031D01*
X-9140024Y-1561225D01*
X-9147005Y-1545413D01*
X-9154999Y-1476498D01*
X-9155000Y-1466667D01*
X-9155000Y-1466661D01*
X-9155000Y-561338D01*
X-9155000Y-561337D01*
X-9155000Y-551501D01*
X-9147005Y-482587D01*
X-9140024Y-466775D01*
X-9138787Y-458968D01*
X-9122218Y-426447D01*
X-9102324Y-381394D01*
X-9024106Y-303176D01*
X-8979053Y-283282D01*
X-8946532Y-266713D01*
X-8938725Y-265476D01*
X-8922913Y-258495D01*
X-8853998Y-250501D01*
X-8844169Y-250500D01*
X-8844162Y-250500D01*
X-7613838Y-250500D01*
X-7604001Y-250500D01*
X-7535087Y-258495D01*
G37*
G36*
X-5314882Y326253D02*
G01*
X-5271531Y326253D01*
X-5235021Y317255D01*
X-5205314Y313907D01*
X-5166892Y300463D01*
X-5119152Y288696D01*
X-5090923Y273880D01*
X-5067886Y265819D01*
X-5028949Y241353D01*
X-4980190Y215762D01*
X-4960599Y198406D01*
X-4944605Y188356D01*
X-4908495Y152246D01*
X-4862720Y111693D01*
X-4851083Y94834D01*
X-4841645Y85396D01*
X-4811976Y38177D01*
X-4773568Y-17465D01*
X-4768324Y-31294D01*
X-4764182Y-37885D01*
X-4744597Y-93857D01*
X-4717917Y-164206D01*
X-4716821Y-173236D01*
X-4716094Y-175313D01*
X-4709983Y-229552D01*
X-4699000Y-320000D01*
X-4709984Y-410455D01*
X-4716094Y-464686D01*
X-4716821Y-466761D01*
X-4717917Y-475794D01*
X-4744602Y-546154D01*
X-4764182Y-602114D01*
X-4768323Y-608703D01*
X-4773568Y-622535D01*
X-4811983Y-678186D01*
X-4841645Y-725395D01*
X-4851081Y-734830D01*
X-4862720Y-751693D01*
X-4908504Y-792253D01*
X-4944605Y-828355D01*
X-4960595Y-838401D01*
X-4980190Y-855762D01*
X-5028959Y-881357D01*
X-5067886Y-905818D01*
X-5090917Y-913876D01*
X-5119152Y-928696D01*
X-5166901Y-940464D01*
X-5205314Y-953906D01*
X-5235014Y-957252D01*
X-5271531Y-966253D01*
X-5314891Y-966253D01*
X-5350000Y-970209D01*
X-5385109Y-966253D01*
X-5428469Y-966253D01*
X-5464986Y-957252D01*
X-5494687Y-953906D01*
X-5533103Y-940463D01*
X-5580848Y-928696D01*
X-5609082Y-913877D01*
X-5632115Y-905818D01*
X-5671048Y-881354D01*
X-5719810Y-855762D01*
X-5739404Y-838403D01*
X-5755396Y-828355D01*
X-5791506Y-792245D01*
X-5837280Y-751693D01*
X-5848918Y-734833D01*
X-5858356Y-725395D01*
X-5888030Y-678170D01*
X-5926432Y-622535D01*
X-5931677Y-608707D01*
X-5935819Y-602114D01*
X-5955412Y-546120D01*
X-5982083Y-475794D01*
X-5983180Y-466765D01*
X-5983907Y-464686D01*
X-5990031Y-410340D01*
X-6001000Y-320000D01*
X-5990032Y-229667D01*
X-5983907Y-175313D01*
X-5983180Y-173232D01*
X-5982083Y-164206D01*
X-5955417Y-93891D01*
X-5935819Y-37885D01*
X-5931676Y-31290D01*
X-5926432Y-17465D01*
X-5888037Y38161D01*
X-5858356Y85396D01*
X-5848915Y94838D01*
X-5837280Y111693D01*
X-5791514Y152239D01*
X-5755396Y188356D01*
X-5739400Y198408D01*
X-5719810Y215762D01*
X-5671058Y241350D01*
X-5632115Y265819D01*
X-5609076Y273881D01*
X-5580848Y288696D01*
X-5533113Y300462D01*
X-5494687Y313907D01*
X-5464979Y317255D01*
X-5428469Y326253D01*
X-5385118Y326253D01*
X-5350000Y330210D01*
X-5314882Y326253D01*
G37*
G36*
X9227217Y575718D02*
G01*
X9243762Y564662D01*
X9254818Y548117D01*
X9258700Y528600D01*
X9258700Y-71400D01*
X9254818Y-90917D01*
X9243762Y-107462D01*
X9227217Y-118518D01*
X9207700Y-122400D01*
X7237700Y-122400D01*
X7218183Y-118518D01*
X7201638Y-107462D01*
X7190582Y-90917D01*
X7186700Y-71400D01*
X7186700Y528600D01*
X7190582Y548117D01*
X7201638Y564662D01*
X7218183Y575718D01*
X7237700Y579600D01*
X9207700Y579600D01*
X9227217Y575718D01*
G37*
G36*
X14177217Y575718D02*
G01*
X14193762Y564662D01*
X14204818Y548117D01*
X14208700Y528600D01*
X14208700Y-71400D01*
X14204818Y-90917D01*
X14193762Y-107462D01*
X14177217Y-118518D01*
X14157700Y-122400D01*
X12187700Y-122400D01*
X12168183Y-118518D01*
X12151638Y-107462D01*
X12140582Y-90917D01*
X12136700Y-71400D01*
X12136700Y528600D01*
X12140582Y548117D01*
X12151638Y564662D01*
X12168183Y575718D01*
X12187700Y579600D01*
X14157700Y579600D01*
X14177217Y575718D01*
G37*
G36*
X5385118Y1216253D02*
G01*
X5428469Y1216253D01*
X5464979Y1207255D01*
X5494686Y1203907D01*
X5533108Y1190463D01*
X5580848Y1178696D01*
X5609077Y1163880D01*
X5632114Y1155819D01*
X5671051Y1131353D01*
X5719810Y1105762D01*
X5739401Y1088406D01*
X5755395Y1078356D01*
X5791505Y1042246D01*
X5837280Y1001693D01*
X5848917Y984834D01*
X5858355Y975396D01*
X5888024Y928177D01*
X5926432Y872535D01*
X5931676Y858706D01*
X5935818Y852115D01*
X5955403Y796143D01*
X5982083Y725794D01*
X5983179Y716764D01*
X5983906Y714687D01*
X5990017Y660448D01*
X6001000Y570000D01*
X5990016Y479545D01*
X5983906Y425314D01*
X5983179Y423239D01*
X5982083Y414206D01*
X5955398Y343846D01*
X5935818Y287886D01*
X5931677Y281297D01*
X5926432Y267465D01*
X5888017Y211814D01*
X5858355Y164605D01*
X5848919Y155170D01*
X5837280Y138307D01*
X5791496Y97747D01*
X5755395Y61645D01*
X5739405Y51599D01*
X5719810Y34238D01*
X5671041Y8643D01*
X5632114Y-15818D01*
X5609083Y-23876D01*
X5580848Y-38696D01*
X5533099Y-50464D01*
X5494686Y-63906D01*
X5464986Y-67252D01*
X5428469Y-76253D01*
X5385109Y-76253D01*
X5350000Y-80209D01*
X5314891Y-76253D01*
X5271531Y-76253D01*
X5235014Y-67252D01*
X5205313Y-63906D01*
X5166897Y-50463D01*
X5119152Y-38696D01*
X5090918Y-23877D01*
X5067885Y-15818D01*
X5028952Y8646D01*
X4980190Y34238D01*
X4960596Y51597D01*
X4944604Y61645D01*
X4908494Y97755D01*
X4862720Y138307D01*
X4851082Y155167D01*
X4841644Y164605D01*
X4811970Y211830D01*
X4773568Y267465D01*
X4768323Y281293D01*
X4764181Y287886D01*
X4744588Y343880D01*
X4717917Y414206D01*
X4716820Y423235D01*
X4716093Y425314D01*
X4709969Y479660D01*
X4699000Y570000D01*
X4709968Y660333D01*
X4716093Y714687D01*
X4716820Y716768D01*
X4717917Y725794D01*
X4744583Y796109D01*
X4764181Y852115D01*
X4768324Y858710D01*
X4773568Y872535D01*
X4811963Y928161D01*
X4841644Y975396D01*
X4851085Y984838D01*
X4862720Y1001693D01*
X4908486Y1042239D01*
X4944604Y1078356D01*
X4960600Y1088408D01*
X4980190Y1105762D01*
X5028942Y1131350D01*
X5067885Y1155819D01*
X5090924Y1163881D01*
X5119152Y1178696D01*
X5166887Y1190462D01*
X5205313Y1203907D01*
X5235021Y1207255D01*
X5271531Y1216253D01*
X5314882Y1216253D01*
X5350000Y1220210D01*
X5385118Y1216253D01*
G37*
G36*
X-5314882Y2106253D02*
G01*
X-5271531Y2106253D01*
X-5235021Y2097255D01*
X-5205314Y2093907D01*
X-5166892Y2080463D01*
X-5119152Y2068696D01*
X-5090923Y2053880D01*
X-5067886Y2045819D01*
X-5028949Y2021353D01*
X-4980190Y1995762D01*
X-4960599Y1978406D01*
X-4944605Y1968356D01*
X-4908495Y1932246D01*
X-4862720Y1891693D01*
X-4851083Y1874834D01*
X-4841645Y1865396D01*
X-4811976Y1818177D01*
X-4773568Y1762535D01*
X-4768324Y1748706D01*
X-4764182Y1742115D01*
X-4744597Y1686143D01*
X-4717917Y1615794D01*
X-4716821Y1606764D01*
X-4716094Y1604687D01*
X-4709983Y1550448D01*
X-4699000Y1460000D01*
X-4709984Y1369545D01*
X-4716094Y1315314D01*
X-4716821Y1313239D01*
X-4717917Y1304206D01*
X-4744602Y1233846D01*
X-4764182Y1177886D01*
X-4768323Y1171297D01*
X-4773568Y1157465D01*
X-4811983Y1101814D01*
X-4841645Y1054605D01*
X-4851081Y1045170D01*
X-4862720Y1028307D01*
X-4908504Y987747D01*
X-4944605Y951645D01*
X-4960595Y941599D01*
X-4980190Y924238D01*
X-5028959Y898643D01*
X-5067886Y874182D01*
X-5090917Y866124D01*
X-5119152Y851304D01*
X-5166901Y839536D01*
X-5205314Y826094D01*
X-5235014Y822748D01*
X-5271531Y813747D01*
X-5314891Y813747D01*
X-5350000Y809791D01*
X-5385109Y813747D01*
X-5428469Y813747D01*
X-5464986Y822748D01*
X-5494687Y826094D01*
X-5533103Y839537D01*
X-5580848Y851304D01*
X-5609082Y866123D01*
X-5632115Y874182D01*
X-5671048Y898646D01*
X-5719810Y924238D01*
X-5739404Y941597D01*
X-5755396Y951645D01*
X-5791506Y987755D01*
X-5837280Y1028307D01*
X-5848918Y1045167D01*
X-5858356Y1054605D01*
X-5888030Y1101830D01*
X-5926432Y1157465D01*
X-5931677Y1171293D01*
X-5935819Y1177886D01*
X-5955412Y1233880D01*
X-5982083Y1304206D01*
X-5983180Y1313235D01*
X-5983907Y1315314D01*
X-5990031Y1369660D01*
X-6001000Y1460000D01*
X-5990032Y1550333D01*
X-5983907Y1604687D01*
X-5983180Y1606768D01*
X-5982083Y1615794D01*
X-5955417Y1686109D01*
X-5935819Y1742115D01*
X-5931676Y1748710D01*
X-5926432Y1762535D01*
X-5888037Y1818161D01*
X-5858356Y1865396D01*
X-5848915Y1874838D01*
X-5837280Y1891693D01*
X-5791514Y1932239D01*
X-5755396Y1968356D01*
X-5739400Y1978408D01*
X-5719810Y1995762D01*
X-5671058Y2021350D01*
X-5632115Y2045819D01*
X-5609076Y2053881D01*
X-5580848Y2068696D01*
X-5533113Y2080462D01*
X-5494687Y2093907D01*
X-5464979Y2097255D01*
X-5428469Y2106253D01*
X-5385118Y2106253D01*
X-5350000Y2110210D01*
X-5314882Y2106253D01*
G37*
G36*
X9227217Y1845718D02*
G01*
X9243762Y1834662D01*
X9254818Y1818117D01*
X9258700Y1798600D01*
X9258700Y1198600D01*
X9254818Y1179083D01*
X9243762Y1162538D01*
X9227217Y1151482D01*
X9207700Y1147600D01*
X7237700Y1147600D01*
X7218183Y1151482D01*
X7201638Y1162538D01*
X7190582Y1179083D01*
X7186700Y1198600D01*
X7186700Y1798600D01*
X7190582Y1818117D01*
X7201638Y1834662D01*
X7218183Y1845718D01*
X7237700Y1849600D01*
X9207700Y1849600D01*
X9227217Y1845718D01*
G37*
G36*
X14177217Y1845718D02*
G01*
X14193762Y1834662D01*
X14204818Y1818117D01*
X14208700Y1798600D01*
X14208700Y1198600D01*
X14204818Y1179083D01*
X14193762Y1162538D01*
X14177217Y1151482D01*
X14157700Y1147600D01*
X12187700Y1147600D01*
X12168183Y1151482D01*
X12151638Y1162538D01*
X12140582Y1179083D01*
X12136700Y1198600D01*
X12136700Y1798600D01*
X12140582Y1818117D01*
X12151638Y1834662D01*
X12168183Y1845718D01*
X12187700Y1849600D01*
X14157700Y1849600D01*
X14177217Y1845718D01*
G37*
G36*
X-7535087Y2716505D02*
G01*
X-7519275Y2709524D01*
X-7511469Y2708287D01*
X-7478956Y2691721D01*
X-7433894Y2671824D01*
X-7355676Y2593606D01*
X-7335777Y2548538D01*
X-7319214Y2516032D01*
X-7317978Y2508228D01*
X-7310995Y2492413D01*
X-7303001Y2423498D01*
X-7303001Y2413669D01*
X-7303000Y2413662D01*
X-7303000Y1946300D01*
X-7303000Y1498501D01*
X-7310995Y1429587D01*
X-7317979Y1413772D01*
X-7319214Y1405969D01*
X-7335774Y1373470D01*
X-7355676Y1328394D01*
X-7433894Y1250176D01*
X-7478970Y1230274D01*
X-7511469Y1213714D01*
X-7519272Y1212479D01*
X-7535087Y1205495D01*
X-7604002Y1197501D01*
X-7613832Y1197501D01*
X-7613838Y1197500D01*
X-8844162Y1197500D01*
X-8844163Y1197501D01*
X-8853999Y1197500D01*
X-8922913Y1205495D01*
X-8938728Y1212478D01*
X-8946532Y1213714D01*
X-8979038Y1230277D01*
X-9024106Y1250176D01*
X-9102324Y1328394D01*
X-9122221Y1373456D01*
X-9138787Y1405969D01*
X-9140024Y1413775D01*
X-9147005Y1429587D01*
X-9154999Y1498502D01*
X-9155000Y1508333D01*
X-9155000Y1508339D01*
X-9155000Y2413662D01*
X-9155000Y2413663D01*
X-9155000Y2423499D01*
X-9147005Y2492413D01*
X-9140024Y2508225D01*
X-9138787Y2516032D01*
X-9122218Y2548553D01*
X-9102324Y2593606D01*
X-9024106Y2671824D01*
X-8979053Y2691718D01*
X-8946532Y2708287D01*
X-8938725Y2709524D01*
X-8922913Y2716505D01*
X-8853998Y2724499D01*
X-8844169Y2724500D01*
X-8844162Y2724500D01*
X-7613838Y2724500D01*
X-7604001Y2724500D01*
X-7535087Y2716505D01*
G37*
G36*
X5385118Y2996253D02*
G01*
X5428469Y2996253D01*
X5464979Y2987255D01*
X5494686Y2983907D01*
X5533108Y2970463D01*
X5580848Y2958696D01*
X5609077Y2943880D01*
X5632114Y2935819D01*
X5671051Y2911353D01*
X5719810Y2885762D01*
X5739401Y2868406D01*
X5755395Y2858356D01*
X5791505Y2822246D01*
X5837280Y2781693D01*
X5848917Y2764834D01*
X5858355Y2755396D01*
X5888024Y2708177D01*
X5926432Y2652535D01*
X5931676Y2638706D01*
X5935818Y2632115D01*
X5955403Y2576143D01*
X5982083Y2505794D01*
X5983179Y2496764D01*
X5983906Y2494687D01*
X5990017Y2440448D01*
X6001000Y2350000D01*
X5990016Y2259545D01*
X5983906Y2205314D01*
X5983179Y2203239D01*
X5982083Y2194206D01*
X5955398Y2123846D01*
X5935818Y2067886D01*
X5931677Y2061297D01*
X5926432Y2047465D01*
X5888017Y1991814D01*
X5858355Y1944605D01*
X5848919Y1935170D01*
X5837280Y1918307D01*
X5791496Y1877747D01*
X5755395Y1841645D01*
X5739405Y1831599D01*
X5719810Y1814238D01*
X5671041Y1788643D01*
X5632114Y1764182D01*
X5609083Y1756124D01*
X5580848Y1741304D01*
X5533099Y1729536D01*
X5494686Y1716094D01*
X5464986Y1712748D01*
X5428469Y1703747D01*
X5385109Y1703747D01*
X5350000Y1699791D01*
X5314891Y1703747D01*
X5271531Y1703747D01*
X5235014Y1712748D01*
X5205313Y1716094D01*
X5166897Y1729537D01*
X5119152Y1741304D01*
X5090918Y1756123D01*
X5067885Y1764182D01*
X5028952Y1788646D01*
X4980190Y1814238D01*
X4960596Y1831597D01*
X4944604Y1841645D01*
X4908494Y1877755D01*
X4862720Y1918307D01*
X4851082Y1935167D01*
X4841644Y1944605D01*
X4811970Y1991830D01*
X4773568Y2047465D01*
X4768323Y2061293D01*
X4764181Y2067886D01*
X4744588Y2123880D01*
X4717917Y2194206D01*
X4716820Y2203235D01*
X4716093Y2205314D01*
X4709969Y2259660D01*
X4699000Y2350000D01*
X4709968Y2440333D01*
X4716093Y2494687D01*
X4716820Y2496768D01*
X4717917Y2505794D01*
X4744583Y2576109D01*
X4764181Y2632115D01*
X4768324Y2638710D01*
X4773568Y2652535D01*
X4811963Y2708161D01*
X4841644Y2755396D01*
X4851085Y2764838D01*
X4862720Y2781693D01*
X4908486Y2822239D01*
X4944604Y2858356D01*
X4960600Y2868408D01*
X4980190Y2885762D01*
X5028942Y2911350D01*
X5067885Y2935819D01*
X5090924Y2943881D01*
X5119152Y2958696D01*
X5166887Y2970462D01*
X5205313Y2983907D01*
X5235021Y2987255D01*
X5271531Y2996253D01*
X5314882Y2996253D01*
X5350000Y3000210D01*
X5385118Y2996253D01*
G37*
G36*
X9227217Y3115718D02*
G01*
X9243762Y3104662D01*
X9254818Y3088117D01*
X9258700Y3068600D01*
X9258700Y2468600D01*
X9254818Y2449083D01*
X9243762Y2432538D01*
X9227217Y2421482D01*
X9207700Y2417600D01*
X7237700Y2417600D01*
X7218183Y2421482D01*
X7201638Y2432538D01*
X7190582Y2449083D01*
X7186700Y2468600D01*
X7186700Y3068600D01*
X7190582Y3088117D01*
X7201638Y3104662D01*
X7218183Y3115718D01*
X7237700Y3119600D01*
X9207700Y3119600D01*
X9227217Y3115718D01*
G37*
G36*
X14177217Y3115718D02*
G01*
X14193762Y3104662D01*
X14204818Y3088117D01*
X14208700Y3068600D01*
X14208700Y2468600D01*
X14204818Y2449083D01*
X14193762Y2432538D01*
X14177217Y2421482D01*
X14157700Y2417600D01*
X12187700Y2417600D01*
X12168183Y2421482D01*
X12151638Y2432538D01*
X12140582Y2449083D01*
X12136700Y2468600D01*
X12136700Y3068600D01*
X12140582Y3088117D01*
X12151638Y3104662D01*
X12168183Y3115718D01*
X12187700Y3119600D01*
X14157700Y3119600D01*
X14177217Y3115718D01*
G37*
G36*
X-5314882Y3886253D02*
G01*
X-5271531Y3886253D01*
X-5235021Y3877255D01*
X-5205314Y3873907D01*
X-5166892Y3860463D01*
X-5119152Y3848696D01*
X-5090923Y3833880D01*
X-5067886Y3825819D01*
X-5028949Y3801353D01*
X-4980190Y3775762D01*
X-4960599Y3758406D01*
X-4944605Y3748356D01*
X-4908495Y3712246D01*
X-4862720Y3671693D01*
X-4851083Y3654834D01*
X-4841645Y3645396D01*
X-4811976Y3598177D01*
X-4773568Y3542535D01*
X-4768324Y3528706D01*
X-4764182Y3522115D01*
X-4744597Y3466143D01*
X-4717917Y3395794D01*
X-4716821Y3386764D01*
X-4716094Y3384687D01*
X-4709983Y3330448D01*
X-4699000Y3240000D01*
X-4709984Y3149545D01*
X-4716094Y3095314D01*
X-4716821Y3093239D01*
X-4717917Y3084206D01*
X-4744602Y3013846D01*
X-4764182Y2957886D01*
X-4768323Y2951297D01*
X-4773568Y2937465D01*
X-4811983Y2881814D01*
X-4841645Y2834605D01*
X-4851081Y2825170D01*
X-4862720Y2808307D01*
X-4908504Y2767747D01*
X-4944605Y2731645D01*
X-4960595Y2721599D01*
X-4980190Y2704238D01*
X-5028959Y2678643D01*
X-5067886Y2654182D01*
X-5090917Y2646124D01*
X-5119152Y2631304D01*
X-5166901Y2619536D01*
X-5205314Y2606094D01*
X-5235014Y2602748D01*
X-5271531Y2593747D01*
X-5314891Y2593747D01*
X-5350000Y2589791D01*
X-5385109Y2593747D01*
X-5428469Y2593747D01*
X-5464986Y2602748D01*
X-5494687Y2606094D01*
X-5533103Y2619537D01*
X-5580848Y2631304D01*
X-5609082Y2646123D01*
X-5632115Y2654182D01*
X-5671048Y2678646D01*
X-5719810Y2704238D01*
X-5739404Y2721597D01*
X-5755396Y2731645D01*
X-5791506Y2767755D01*
X-5837280Y2808307D01*
X-5848918Y2825167D01*
X-5858356Y2834605D01*
X-5888030Y2881830D01*
X-5926432Y2937465D01*
X-5931677Y2951293D01*
X-5935819Y2957886D01*
X-5955412Y3013880D01*
X-5982083Y3084206D01*
X-5983180Y3093235D01*
X-5983907Y3095314D01*
X-5990031Y3149660D01*
X-6001000Y3240000D01*
X-5990032Y3330333D01*
X-5983907Y3384687D01*
X-5983180Y3386768D01*
X-5982083Y3395794D01*
X-5955417Y3466109D01*
X-5935819Y3522115D01*
X-5931676Y3528710D01*
X-5926432Y3542535D01*
X-5888037Y3598161D01*
X-5858356Y3645396D01*
X-5848915Y3654838D01*
X-5837280Y3671693D01*
X-5791514Y3712239D01*
X-5755396Y3748356D01*
X-5739400Y3758408D01*
X-5719810Y3775762D01*
X-5671058Y3801350D01*
X-5632115Y3825819D01*
X-5609076Y3833881D01*
X-5580848Y3848696D01*
X-5533113Y3860462D01*
X-5494687Y3873907D01*
X-5464979Y3877255D01*
X-5428469Y3886253D01*
X-5385118Y3886253D01*
X-5350000Y3890210D01*
X-5314882Y3886253D01*
G37*
G36*
X5385118Y4776253D02*
G01*
X5428469Y4776253D01*
X5464979Y4767255D01*
X5494686Y4763907D01*
X5533108Y4750463D01*
X5580848Y4738696D01*
X5609077Y4723880D01*
X5632114Y4715819D01*
X5671051Y4691353D01*
X5719810Y4665762D01*
X5739401Y4648406D01*
X5755395Y4638356D01*
X5791505Y4602246D01*
X5837280Y4561693D01*
X5848917Y4544834D01*
X5858355Y4535396D01*
X5888024Y4488177D01*
X5926432Y4432535D01*
X5931676Y4418706D01*
X5935818Y4412115D01*
X5955403Y4356143D01*
X5982083Y4285794D01*
X5983179Y4276764D01*
X5983906Y4274687D01*
X5990017Y4220448D01*
X6001000Y4130000D01*
X5990016Y4039545D01*
X5983906Y3985314D01*
X5983179Y3983239D01*
X5982083Y3974206D01*
X5955398Y3903846D01*
X5935818Y3847886D01*
X5931677Y3841297D01*
X5926432Y3827465D01*
X5888017Y3771814D01*
X5858355Y3724605D01*
X5848919Y3715170D01*
X5837280Y3698307D01*
X5791496Y3657747D01*
X5755395Y3621645D01*
X5739405Y3611599D01*
X5719810Y3594238D01*
X5671041Y3568643D01*
X5632114Y3544182D01*
X5609083Y3536124D01*
X5580848Y3521304D01*
X5533099Y3509536D01*
X5494686Y3496094D01*
X5464986Y3492748D01*
X5428469Y3483747D01*
X5385109Y3483747D01*
X5350000Y3479791D01*
X5314891Y3483747D01*
X5271531Y3483747D01*
X5235014Y3492748D01*
X5205313Y3496094D01*
X5166897Y3509537D01*
X5119152Y3521304D01*
X5090918Y3536123D01*
X5067885Y3544182D01*
X5028952Y3568646D01*
X4980190Y3594238D01*
X4960596Y3611597D01*
X4944604Y3621645D01*
X4908494Y3657755D01*
X4862720Y3698307D01*
X4851082Y3715167D01*
X4841644Y3724605D01*
X4811970Y3771830D01*
X4773568Y3827465D01*
X4768323Y3841293D01*
X4764181Y3847886D01*
X4744588Y3903880D01*
X4717917Y3974206D01*
X4716820Y3983235D01*
X4716093Y3985314D01*
X4709969Y4039660D01*
X4699000Y4130000D01*
X4709968Y4220333D01*
X4716093Y4274687D01*
X4716820Y4276768D01*
X4717917Y4285794D01*
X4744583Y4356109D01*
X4764181Y4412115D01*
X4768324Y4418710D01*
X4773568Y4432535D01*
X4811963Y4488161D01*
X4841644Y4535396D01*
X4851085Y4544838D01*
X4862720Y4561693D01*
X4908486Y4602239D01*
X4944604Y4638356D01*
X4960600Y4648408D01*
X4980190Y4665762D01*
X5028942Y4691350D01*
X5067885Y4715819D01*
X5090924Y4723881D01*
X5119152Y4738696D01*
X5166887Y4750462D01*
X5205313Y4763907D01*
X5235021Y4767255D01*
X5271531Y4776253D01*
X5314882Y4776253D01*
X5350000Y4780210D01*
X5385118Y4776253D01*
G37*
G36*
X9227217Y4385718D02*
G01*
X9243762Y4374662D01*
X9254818Y4358117D01*
X9258700Y4338600D01*
X9258700Y3738600D01*
X9254818Y3719083D01*
X9243762Y3702538D01*
X9227217Y3691482D01*
X9207700Y3687600D01*
X7237700Y3687600D01*
X7218183Y3691482D01*
X7201638Y3702538D01*
X7190582Y3719083D01*
X7186700Y3738600D01*
X7186700Y4338600D01*
X7190582Y4358117D01*
X7201638Y4374662D01*
X7218183Y4385718D01*
X7237700Y4389600D01*
X9207700Y4389600D01*
X9227217Y4385718D01*
G37*
G36*
X14177217Y4385718D02*
G01*
X14193762Y4374662D01*
X14204818Y4358117D01*
X14208700Y4338600D01*
X14208700Y3738600D01*
X14204818Y3719083D01*
X14193762Y3702538D01*
X14177217Y3691482D01*
X14157700Y3687600D01*
X12187700Y3687600D01*
X12168183Y3691482D01*
X12151638Y3702538D01*
X12140582Y3719083D01*
X12136700Y3738600D01*
X12136700Y4338600D01*
X12140582Y4358117D01*
X12151638Y4374662D01*
X12168183Y4385718D01*
X12187700Y4389600D01*
X14157700Y4389600D01*
X14177217Y4385718D01*
G37*
G36*
X-5314882Y5666253D02*
G01*
X-5271531Y5666253D01*
X-5235021Y5657255D01*
X-5205314Y5653907D01*
X-5166892Y5640463D01*
X-5119152Y5628696D01*
X-5090923Y5613880D01*
X-5067886Y5605819D01*
X-5028949Y5581353D01*
X-4980190Y5555762D01*
X-4960599Y5538406D01*
X-4944605Y5528356D01*
X-4908495Y5492246D01*
X-4862720Y5451693D01*
X-4851083Y5434834D01*
X-4841645Y5425396D01*
X-4811976Y5378177D01*
X-4773568Y5322535D01*
X-4768324Y5308706D01*
X-4764182Y5302115D01*
X-4744597Y5246143D01*
X-4717917Y5175794D01*
X-4716821Y5166764D01*
X-4716094Y5164687D01*
X-4709983Y5110448D01*
X-4699000Y5020000D01*
X-4709984Y4929545D01*
X-4716094Y4875314D01*
X-4716821Y4873239D01*
X-4717917Y4864206D01*
X-4744602Y4793846D01*
X-4764182Y4737886D01*
X-4768323Y4731297D01*
X-4773568Y4717465D01*
X-4811983Y4661814D01*
X-4841645Y4614605D01*
X-4851081Y4605170D01*
X-4862720Y4588307D01*
X-4908504Y4547747D01*
X-4944605Y4511645D01*
X-4960595Y4501599D01*
X-4980190Y4484238D01*
X-5028959Y4458643D01*
X-5067886Y4434182D01*
X-5090917Y4426124D01*
X-5119152Y4411304D01*
X-5166901Y4399536D01*
X-5205314Y4386094D01*
X-5235014Y4382748D01*
X-5271531Y4373747D01*
X-5314891Y4373747D01*
X-5350000Y4369791D01*
X-5385109Y4373747D01*
X-5428469Y4373747D01*
X-5464986Y4382748D01*
X-5494687Y4386094D01*
X-5533103Y4399537D01*
X-5580848Y4411304D01*
X-5609082Y4426123D01*
X-5632115Y4434182D01*
X-5671048Y4458646D01*
X-5719810Y4484238D01*
X-5739404Y4501597D01*
X-5755396Y4511645D01*
X-5791506Y4547755D01*
X-5837280Y4588307D01*
X-5848918Y4605167D01*
X-5858356Y4614605D01*
X-5888030Y4661830D01*
X-5926432Y4717465D01*
X-5931677Y4731293D01*
X-5935819Y4737886D01*
X-5955412Y4793880D01*
X-5982083Y4864206D01*
X-5983180Y4873235D01*
X-5983907Y4875314D01*
X-5990031Y4929660D01*
X-6001000Y5020000D01*
X-5990032Y5110333D01*
X-5983907Y5164687D01*
X-5983180Y5166768D01*
X-5982083Y5175794D01*
X-5955417Y5246109D01*
X-5935819Y5302115D01*
X-5931676Y5308710D01*
X-5926432Y5322535D01*
X-5888037Y5378161D01*
X-5858356Y5425396D01*
X-5848915Y5434838D01*
X-5837280Y5451693D01*
X-5791514Y5492239D01*
X-5755396Y5528356D01*
X-5739400Y5538408D01*
X-5719810Y5555762D01*
X-5671058Y5581350D01*
X-5632115Y5605819D01*
X-5609076Y5613881D01*
X-5580848Y5628696D01*
X-5533113Y5640462D01*
X-5494687Y5653907D01*
X-5464979Y5657255D01*
X-5428469Y5666253D01*
X-5385118Y5666253D01*
X-5350000Y5670210D01*
X-5314882Y5666253D01*
G37*
G36*
X9227217Y5655718D02*
G01*
X9243762Y5644662D01*
X9254818Y5628117D01*
X9258700Y5608600D01*
X9258700Y5008600D01*
X9254818Y4989083D01*
X9243762Y4972538D01*
X9227217Y4961482D01*
X9207700Y4957600D01*
X7237700Y4957600D01*
X7218183Y4961482D01*
X7201638Y4972538D01*
X7190582Y4989083D01*
X7186700Y5008600D01*
X7186700Y5608600D01*
X7190582Y5628117D01*
X7201638Y5644662D01*
X7218183Y5655718D01*
X7237700Y5659600D01*
X9207700Y5659600D01*
X9227217Y5655718D01*
G37*
G36*
X14177217Y5655718D02*
G01*
X14193762Y5644662D01*
X14204818Y5628117D01*
X14208700Y5608600D01*
X14208700Y5008600D01*
X14204818Y4989083D01*
X14193762Y4972538D01*
X14177217Y4961482D01*
X14157700Y4957600D01*
X12187700Y4957600D01*
X12168183Y4961482D01*
X12151638Y4972538D01*
X12140582Y4989083D01*
X12136700Y5008600D01*
X12136700Y5608600D01*
X12140582Y5628117D01*
X12151638Y5644662D01*
X12168183Y5655718D01*
X12187700Y5659600D01*
X14157700Y5659600D01*
X14177217Y5655718D01*
G37*
G36*
X5385118Y6556253D02*
G01*
X5428469Y6556253D01*
X5464979Y6547255D01*
X5494686Y6543907D01*
X5533108Y6530463D01*
X5580848Y6518696D01*
X5609077Y6503880D01*
X5632114Y6495819D01*
X5671051Y6471353D01*
X5719810Y6445762D01*
X5739401Y6428406D01*
X5755395Y6418356D01*
X5791505Y6382246D01*
X5837280Y6341693D01*
X5848917Y6324834D01*
X5858355Y6315396D01*
X5888024Y6268177D01*
X5926432Y6212535D01*
X5931676Y6198706D01*
X5935818Y6192115D01*
X5955403Y6136143D01*
X5982083Y6065794D01*
X5983179Y6056764D01*
X5983906Y6054687D01*
X5990017Y6000448D01*
X6001000Y5910000D01*
X5990016Y5819545D01*
X5983906Y5765314D01*
X5983179Y5763239D01*
X5982083Y5754206D01*
X5955398Y5683846D01*
X5935818Y5627886D01*
X5931677Y5621297D01*
X5926432Y5607465D01*
X5888017Y5551814D01*
X5858355Y5504605D01*
X5848919Y5495170D01*
X5837280Y5478307D01*
X5791496Y5437747D01*
X5755395Y5401645D01*
X5739405Y5391599D01*
X5719810Y5374238D01*
X5671041Y5348643D01*
X5632114Y5324182D01*
X5609083Y5316124D01*
X5580848Y5301304D01*
X5533099Y5289536D01*
X5494686Y5276094D01*
X5464986Y5272748D01*
X5428469Y5263747D01*
X5385109Y5263747D01*
X5350000Y5259791D01*
X5314891Y5263747D01*
X5271531Y5263747D01*
X5235014Y5272748D01*
X5205313Y5276094D01*
X5166897Y5289537D01*
X5119152Y5301304D01*
X5090918Y5316123D01*
X5067885Y5324182D01*
X5028952Y5348646D01*
X4980190Y5374238D01*
X4960596Y5391597D01*
X4944604Y5401645D01*
X4908494Y5437755D01*
X4862720Y5478307D01*
X4851082Y5495167D01*
X4841644Y5504605D01*
X4811970Y5551830D01*
X4773568Y5607465D01*
X4768323Y5621293D01*
X4764181Y5627886D01*
X4744588Y5683880D01*
X4717917Y5754206D01*
X4716820Y5763235D01*
X4716093Y5765314D01*
X4709969Y5819660D01*
X4699000Y5910000D01*
X4709968Y6000333D01*
X4716093Y6054687D01*
X4716820Y6056768D01*
X4717917Y6065794D01*
X4744583Y6136109D01*
X4764181Y6192115D01*
X4768324Y6198710D01*
X4773568Y6212535D01*
X4811963Y6268161D01*
X4841644Y6315396D01*
X4851085Y6324838D01*
X4862720Y6341693D01*
X4908486Y6382239D01*
X4944604Y6418356D01*
X4960600Y6428408D01*
X4980190Y6445762D01*
X5028942Y6471350D01*
X5067885Y6495819D01*
X5090924Y6503881D01*
X5119152Y6518696D01*
X5166887Y6530462D01*
X5205313Y6543907D01*
X5235021Y6547255D01*
X5271531Y6556253D01*
X5314882Y6556253D01*
X5350000Y6560210D01*
X5385118Y6556253D01*
G37*
G36*
X-5314882Y7446253D02*
G01*
X-5271531Y7446253D01*
X-5235021Y7437255D01*
X-5205314Y7433907D01*
X-5166892Y7420463D01*
X-5119152Y7408696D01*
X-5090923Y7393880D01*
X-5067886Y7385819D01*
X-5028949Y7361353D01*
X-4980190Y7335762D01*
X-4960599Y7318406D01*
X-4944605Y7308356D01*
X-4908495Y7272246D01*
X-4862720Y7231693D01*
X-4851083Y7214834D01*
X-4841645Y7205396D01*
X-4811976Y7158177D01*
X-4773568Y7102535D01*
X-4768324Y7088706D01*
X-4764182Y7082115D01*
X-4744597Y7026143D01*
X-4717917Y6955794D01*
X-4716821Y6946764D01*
X-4716094Y6944687D01*
X-4709983Y6890448D01*
X-4699000Y6800000D01*
X-4709984Y6709545D01*
X-4716094Y6655314D01*
X-4716821Y6653239D01*
X-4717917Y6644206D01*
X-4744602Y6573846D01*
X-4764182Y6517886D01*
X-4768323Y6511297D01*
X-4773568Y6497465D01*
X-4811983Y6441814D01*
X-4841645Y6394605D01*
X-4851081Y6385170D01*
X-4862720Y6368307D01*
X-4908504Y6327747D01*
X-4944605Y6291645D01*
X-4960595Y6281599D01*
X-4980190Y6264238D01*
X-5028959Y6238643D01*
X-5067886Y6214182D01*
X-5090917Y6206124D01*
X-5119152Y6191304D01*
X-5166901Y6179536D01*
X-5205314Y6166094D01*
X-5235014Y6162748D01*
X-5271531Y6153747D01*
X-5314891Y6153747D01*
X-5350000Y6149791D01*
X-5385109Y6153747D01*
X-5428469Y6153747D01*
X-5464986Y6162748D01*
X-5494687Y6166094D01*
X-5533103Y6179537D01*
X-5580848Y6191304D01*
X-5609082Y6206123D01*
X-5632115Y6214182D01*
X-5671048Y6238646D01*
X-5719810Y6264238D01*
X-5739404Y6281597D01*
X-5755396Y6291645D01*
X-5791506Y6327755D01*
X-5837280Y6368307D01*
X-5848918Y6385167D01*
X-5858356Y6394605D01*
X-5888030Y6441830D01*
X-5926432Y6497465D01*
X-5931677Y6511293D01*
X-5935819Y6517886D01*
X-5955412Y6573880D01*
X-5982083Y6644206D01*
X-5983180Y6653235D01*
X-5983907Y6655314D01*
X-5990031Y6709660D01*
X-6001000Y6800000D01*
X-5990032Y6890333D01*
X-5983907Y6944687D01*
X-5983180Y6946768D01*
X-5982083Y6955794D01*
X-5955417Y7026109D01*
X-5935819Y7082115D01*
X-5931676Y7088710D01*
X-5926432Y7102535D01*
X-5888037Y7158161D01*
X-5858356Y7205396D01*
X-5848915Y7214838D01*
X-5837280Y7231693D01*
X-5791514Y7272239D01*
X-5755396Y7308356D01*
X-5739400Y7318408D01*
X-5719810Y7335762D01*
X-5671058Y7361350D01*
X-5632115Y7385819D01*
X-5609076Y7393881D01*
X-5580848Y7408696D01*
X-5533113Y7420462D01*
X-5494687Y7433907D01*
X-5464979Y7437255D01*
X-5428469Y7446253D01*
X-5385118Y7446253D01*
X-5350000Y7450210D01*
X-5314882Y7446253D01*
G37*
G36*
X9227217Y6925718D02*
G01*
X9243762Y6914662D01*
X9254818Y6898117D01*
X9258700Y6878600D01*
X9258700Y6278600D01*
X9254818Y6259083D01*
X9243762Y6242538D01*
X9227217Y6231482D01*
X9207700Y6227600D01*
X7237700Y6227600D01*
X7218183Y6231482D01*
X7201638Y6242538D01*
X7190582Y6259083D01*
X7186700Y6278600D01*
X7186700Y6878600D01*
X7190582Y6898117D01*
X7201638Y6914662D01*
X7218183Y6925718D01*
X7237700Y6929600D01*
X9207700Y6929600D01*
X9227217Y6925718D01*
G37*
G36*
X14177217Y6925718D02*
G01*
X14193762Y6914662D01*
X14204818Y6898117D01*
X14208700Y6878600D01*
X14208700Y6278600D01*
X14204818Y6259083D01*
X14193762Y6242538D01*
X14177217Y6231482D01*
X14157700Y6227600D01*
X12187700Y6227600D01*
X12168183Y6231482D01*
X12151638Y6242538D01*
X12140582Y6259083D01*
X12136700Y6278600D01*
X12136700Y6878600D01*
X12140582Y6898117D01*
X12151638Y6914662D01*
X12168183Y6925718D01*
X12187700Y6929600D01*
X14157700Y6929600D01*
X14177217Y6925718D01*
G37*
G36*
X5385118Y8336253D02*
G01*
X5428469Y8336253D01*
X5464979Y8327255D01*
X5494686Y8323907D01*
X5533108Y8310463D01*
X5580848Y8298696D01*
X5609077Y8283880D01*
X5632114Y8275819D01*
X5671051Y8251353D01*
X5719810Y8225762D01*
X5739401Y8208406D01*
X5755395Y8198356D01*
X5791505Y8162246D01*
X5837280Y8121693D01*
X5848917Y8104834D01*
X5858355Y8095396D01*
X5888024Y8048177D01*
X5926432Y7992535D01*
X5931676Y7978706D01*
X5935818Y7972115D01*
X5955403Y7916143D01*
X5982083Y7845794D01*
X5983179Y7836764D01*
X5983906Y7834687D01*
X5990017Y7780448D01*
X6001000Y7690000D01*
X5990016Y7599545D01*
X5983906Y7545314D01*
X5983179Y7543239D01*
X5982083Y7534206D01*
X5955398Y7463846D01*
X5935818Y7407886D01*
X5931677Y7401297D01*
X5926432Y7387465D01*
X5888017Y7331814D01*
X5858355Y7284605D01*
X5848919Y7275170D01*
X5837280Y7258307D01*
X5791496Y7217747D01*
X5755395Y7181645D01*
X5739405Y7171599D01*
X5719810Y7154238D01*
X5671041Y7128643D01*
X5632114Y7104182D01*
X5609083Y7096124D01*
X5580848Y7081304D01*
X5533099Y7069536D01*
X5494686Y7056094D01*
X5464986Y7052748D01*
X5428469Y7043747D01*
X5385109Y7043747D01*
X5350000Y7039791D01*
X5314891Y7043747D01*
X5271531Y7043747D01*
X5235014Y7052748D01*
X5205313Y7056094D01*
X5166897Y7069537D01*
X5119152Y7081304D01*
X5090918Y7096123D01*
X5067885Y7104182D01*
X5028952Y7128646D01*
X4980190Y7154238D01*
X4960596Y7171597D01*
X4944604Y7181645D01*
X4908494Y7217755D01*
X4862720Y7258307D01*
X4851082Y7275167D01*
X4841644Y7284605D01*
X4811970Y7331830D01*
X4773568Y7387465D01*
X4768323Y7401293D01*
X4764181Y7407886D01*
X4744588Y7463880D01*
X4717917Y7534206D01*
X4716820Y7543235D01*
X4716093Y7545314D01*
X4709969Y7599660D01*
X4699000Y7690000D01*
X4709968Y7780333D01*
X4716093Y7834687D01*
X4716820Y7836768D01*
X4717917Y7845794D01*
X4744583Y7916109D01*
X4764181Y7972115D01*
X4768324Y7978710D01*
X4773568Y7992535D01*
X4811963Y8048161D01*
X4841644Y8095396D01*
X4851085Y8104838D01*
X4862720Y8121693D01*
X4908486Y8162239D01*
X4944604Y8198356D01*
X4960600Y8208408D01*
X4980190Y8225762D01*
X5028942Y8251350D01*
X5067885Y8275819D01*
X5090924Y8283881D01*
X5119152Y8298696D01*
X5166887Y8310462D01*
X5205313Y8323907D01*
X5235021Y8327255D01*
X5271531Y8336253D01*
X5314882Y8336253D01*
X5350000Y8340210D01*
X5385118Y8336253D01*
G37*
G36*
X9227217Y8195718D02*
G01*
X9243762Y8184662D01*
X9254818Y8168117D01*
X9258700Y8148600D01*
X9258700Y7548600D01*
X9254818Y7529083D01*
X9243762Y7512538D01*
X9227217Y7501482D01*
X9207700Y7497600D01*
X7237700Y7497600D01*
X7218183Y7501482D01*
X7201638Y7512538D01*
X7190582Y7529083D01*
X7186700Y7548600D01*
X7186700Y8148600D01*
X7190582Y8168117D01*
X7201638Y8184662D01*
X7218183Y8195718D01*
X7237700Y8199600D01*
X9207700Y8199600D01*
X9227217Y8195718D01*
G37*
G36*
X14177217Y8195718D02*
G01*
X14193762Y8184662D01*
X14204818Y8168117D01*
X14208700Y8148600D01*
X14208700Y7548600D01*
X14204818Y7529083D01*
X14193762Y7512538D01*
X14177217Y7501482D01*
X14157700Y7497600D01*
X12187700Y7497600D01*
X12168183Y7501482D01*
X12151638Y7512538D01*
X12140582Y7529083D01*
X12136700Y7548600D01*
X12136700Y8148600D01*
X12140582Y8168117D01*
X12151638Y8184662D01*
X12168183Y8195718D01*
X12187700Y8199600D01*
X14157700Y8199600D01*
X14177217Y8195718D01*
G37*
G36*
X-11288261Y11180439D02*
G01*
X-11253555Y11169162D01*
X-11247162Y11164517D01*
X-11231042Y11158272D01*
X-11176659Y11115195D01*
X-10522587Y10461124D01*
X-10479511Y10406741D01*
X-10473267Y10390622D01*
X-10468622Y10384229D01*
X-10457347Y10349527D01*
X-10439551Y10303592D01*
X-10439551Y10192975D01*
X-10457346Y10147042D01*
X-10468621Y10112341D01*
X-10473266Y10105949D01*
X-10479511Y10089827D01*
X-10522588Y10035444D01*
X-11406469Y9151562D01*
X-11460852Y9108486D01*
X-11476974Y9102241D01*
X-11483366Y9097596D01*
X-11518067Y9086321D01*
X-11564000Y9068526D01*
X-11674617Y9068526D01*
X-11720554Y9086322D01*
X-11755254Y9097597D01*
X-11761647Y9102242D01*
X-11777766Y9108486D01*
X-11832149Y9151563D01*
X-12486221Y9805634D01*
X-12529297Y9860017D01*
X-12535542Y9876137D01*
X-12540187Y9882530D01*
X-12551464Y9917236D01*
X-12569257Y9963166D01*
X-12569257Y10073783D01*
X-12551468Y10119702D01*
X-12540188Y10154418D01*
X-12535541Y10160815D01*
X-12529297Y10176931D01*
X-12486220Y10231314D01*
X-12479272Y10238263D01*
X-12479266Y10238270D01*
X-11609295Y11108241D01*
X-11609292Y11108244D01*
X-11602339Y11115196D01*
X-11547956Y11158272D01*
X-11531840Y11164516D01*
X-11525443Y11169163D01*
X-11490729Y11180443D01*
X-11444808Y11198232D01*
X-11334191Y11198232D01*
X-11288261Y11180439D01*
G37*
G36*
X10773621Y11551131D02*
G01*
X10790166Y11540075D01*
X12204380Y10125861D01*
X12215436Y10109316D01*
X12219317Y10089799D01*
X12215436Y10070282D01*
X12204380Y10053736D01*
X11744761Y9594117D01*
X11728215Y9583061D01*
X11708698Y9579180D01*
X11689181Y9583061D01*
X11672636Y9594117D01*
X10258422Y11008331D01*
X10247366Y11024876D01*
X10243485Y11044393D01*
X10247366Y11063910D01*
X10258422Y11080456D01*
X10592689Y11414723D01*
X10709334Y11531369D01*
X10709337Y11531372D01*
X10718041Y11540075D01*
X10734587Y11551131D01*
X10754104Y11555012D01*
X10773621Y11551131D01*
G37*
G36*
X12117124Y12894634D02*
G01*
X12133669Y12883578D01*
X13547883Y11469364D01*
X13558939Y11452819D01*
X13562820Y11433302D01*
X13558939Y11413785D01*
X13547883Y11397239D01*
X13088264Y10937620D01*
X13071718Y10926564D01*
X13052201Y10922683D01*
X13032684Y10926564D01*
X13016139Y10937620D01*
X11601925Y12351834D01*
X11590869Y12368379D01*
X11586988Y12387896D01*
X11590869Y12407413D01*
X11601925Y12423959D01*
X11920789Y12742823D01*
X12052837Y12874872D01*
X12052840Y12874875D01*
X12061544Y12883578D01*
X12078090Y12894634D01*
X12097607Y12898515D01*
X12117124Y12894634D01*
G37*
G36*
X-13391903Y13284081D02*
G01*
X-13357197Y13272804D01*
X-13350804Y13268159D01*
X-13334684Y13261914D01*
X-13280301Y13218837D01*
X-12626229Y12564766D01*
X-12583153Y12510383D01*
X-12576909Y12494264D01*
X-12572264Y12487871D01*
X-12560989Y12453169D01*
X-12543193Y12407234D01*
X-12543193Y12296617D01*
X-12560988Y12250684D01*
X-12572263Y12215983D01*
X-12576908Y12209591D01*
X-12583153Y12193469D01*
X-12626230Y12139086D01*
X-13510111Y11255204D01*
X-13564494Y11212128D01*
X-13580616Y11205883D01*
X-13587008Y11201238D01*
X-13621709Y11189963D01*
X-13667642Y11172168D01*
X-13778259Y11172168D01*
X-13824196Y11189964D01*
X-13858896Y11201239D01*
X-13865289Y11205884D01*
X-13881408Y11212128D01*
X-13935791Y11255205D01*
X-14589863Y11909276D01*
X-14632939Y11963659D01*
X-14639184Y11979779D01*
X-14643829Y11986172D01*
X-14655108Y12020884D01*
X-14672899Y12066808D01*
X-14672899Y12177425D01*
X-14655113Y12223338D01*
X-14643830Y12258060D01*
X-14639183Y12264457D01*
X-14632939Y12280573D01*
X-14589862Y12334956D01*
X-14582914Y12341905D01*
X-14582908Y12341912D01*
X-13712937Y13211883D01*
X-13712934Y13211886D01*
X-13705981Y13218838D01*
X-13651598Y13261914D01*
X-13635482Y13268158D01*
X-13629085Y13272805D01*
X-13594371Y13284085D01*
X-13548450Y13301874D01*
X-13437833Y13301874D01*
X-13391903Y13284081D01*
G37*
G36*
X-8634215Y13887818D02*
G01*
X-8599509Y13876541D01*
X-8593116Y13871896D01*
X-8576996Y13865651D01*
X-8522613Y13822574D01*
X-7868541Y13168503D01*
X-7825465Y13114120D01*
X-7819221Y13098001D01*
X-7814576Y13091608D01*
X-7803301Y13056906D01*
X-7785505Y13010971D01*
X-7785505Y12900354D01*
X-7803300Y12854421D01*
X-7814575Y12819720D01*
X-7819220Y12813328D01*
X-7825465Y12797206D01*
X-7868542Y12742823D01*
X-8752423Y11858941D01*
X-8806806Y11815865D01*
X-8822928Y11809620D01*
X-8829320Y11804975D01*
X-8864021Y11793700D01*
X-8909954Y11775905D01*
X-9020571Y11775905D01*
X-9066508Y11793701D01*
X-9101208Y11804976D01*
X-9107601Y11809621D01*
X-9123720Y11815865D01*
X-9178103Y11858942D01*
X-9832175Y12513013D01*
X-9875251Y12567396D01*
X-9881496Y12583516D01*
X-9886141Y12589909D01*
X-9897418Y12624615D01*
X-9915211Y12670545D01*
X-9915211Y12781162D01*
X-9897422Y12827081D01*
X-9886142Y12861797D01*
X-9881495Y12868194D01*
X-9875251Y12884310D01*
X-9832174Y12938693D01*
X-9825226Y12945642D01*
X-9825220Y12945649D01*
X-8955249Y13815620D01*
X-8955246Y13815623D01*
X-8948293Y13822575D01*
X-8893910Y13865651D01*
X-8877794Y13871895D01*
X-8871397Y13876542D01*
X-8836683Y13887822D01*
X-8790762Y13905611D01*
X-8680145Y13905611D01*
X-8634215Y13887818D01*
G37*
G36*
X9027067Y14641188D02*
G01*
X9043612Y14630132D01*
X10457826Y13215918D01*
X10468882Y13199373D01*
X10472763Y13179856D01*
X10468882Y13160339D01*
X10457826Y13143793D01*
X9998207Y12684174D01*
X9981661Y12673118D01*
X9962144Y12669237D01*
X9942627Y12673118D01*
X9926082Y12684174D01*
X8511868Y14098388D01*
X8500812Y14114933D01*
X8496931Y14134450D01*
X8500812Y14153967D01*
X8511868Y14170513D01*
X8741677Y14400323D01*
X8962780Y14621426D01*
X8962783Y14621429D01*
X8971487Y14630132D01*
X8988033Y14641188D01*
X9007550Y14645069D01*
X9027067Y14641188D01*
G37*
G36*
X-10737857Y15991460D02*
G01*
X-10703151Y15980183D01*
X-10696758Y15975538D01*
X-10680638Y15969293D01*
X-10626255Y15926216D01*
X-9972183Y15272145D01*
X-9929107Y15217762D01*
X-9922863Y15201643D01*
X-9918218Y15195250D01*
X-9906943Y15160548D01*
X-9889147Y15114613D01*
X-9889147Y15003996D01*
X-9906942Y14958063D01*
X-9918217Y14923362D01*
X-9922862Y14916970D01*
X-9929107Y14900848D01*
X-9972184Y14846465D01*
X-10856065Y13962583D01*
X-10910448Y13919507D01*
X-10926570Y13913262D01*
X-10932962Y13908617D01*
X-10967663Y13897342D01*
X-11013596Y13879547D01*
X-11124213Y13879547D01*
X-11170150Y13897343D01*
X-11204850Y13908618D01*
X-11211243Y13913263D01*
X-11227362Y13919507D01*
X-11281745Y13962584D01*
X-11935817Y14616655D01*
X-11978893Y14671038D01*
X-11985138Y14687158D01*
X-11989783Y14693551D01*
X-12001060Y14728257D01*
X-12018853Y14774187D01*
X-12018853Y14884804D01*
X-12001064Y14930723D01*
X-11989784Y14965439D01*
X-11985137Y14971836D01*
X-11978893Y14987952D01*
X-11935816Y15042335D01*
X-11928868Y15049284D01*
X-11928862Y15049291D01*
X-11058891Y15919262D01*
X-11058888Y15919265D01*
X-11051935Y15926217D01*
X-10997552Y15969293D01*
X-10981436Y15975537D01*
X-10975039Y15980184D01*
X-10940325Y15991464D01*
X-10894404Y16009253D01*
X-10783787Y16009253D01*
X-10737857Y15991460D01*
G37*
G36*
X83901Y20396092D02*
G01*
X168678Y20396092D01*
X247084Y20386928D01*
X324782Y20382564D01*
X413770Y20367445D01*
X503753Y20356927D01*
X574855Y20340076D01*
X645487Y20328075D01*
X738240Y20301354D01*
X832016Y20279128D01*
X895166Y20256144D01*
X958076Y20238019D01*
X1053084Y20198666D01*
X1149027Y20163745D01*
X1203798Y20136238D01*
X1258613Y20113533D01*
X1354210Y20060699D01*
X1450500Y20012340D01*
X1496761Y19981914D01*
X1543317Y19956183D01*
X1637669Y19889237D01*
X1732357Y19826959D01*
X1770233Y19795177D01*
X1808623Y19767938D01*
X1899783Y19686472D01*
X1990787Y19610111D01*
X2020646Y19578462D01*
X2051177Y19551178D01*
X2137133Y19454994D01*
X2222295Y19364727D01*
X2244725Y19334598D01*
X2267937Y19308624D01*
X2346640Y19197703D01*
X2423750Y19094126D01*
X2439552Y19066755D01*
X2456182Y19043318D01*
X2525591Y18917730D01*
X2592428Y18801966D01*
X2602581Y18778428D01*
X2613532Y18758614D01*
X2671602Y18618420D01*
X2726048Y18492200D01*
X2731690Y18473354D01*
X2738018Y18458077D01*
X2782804Y18302622D01*
X2822803Y18169017D01*
X2825181Y18155529D01*
X2828074Y18145488D01*
X2857762Y17970750D01*
X2881384Y17836786D01*
X2881832Y17829081D01*
X2882563Y17824783D01*
X2895495Y17594505D01*
X2901000Y17500000D01*
X2895492Y17405450D01*
X2882563Y17175218D01*
X2881832Y17170921D01*
X2881384Y17163214D01*
X2857758Y17029224D01*
X2828074Y16854513D01*
X2825181Y16844475D01*
X2822803Y16830983D01*
X2782796Y16697353D01*
X2738018Y16541924D01*
X2731691Y16526651D01*
X2726048Y16507800D01*
X2671591Y16381557D01*
X2613532Y16241387D01*
X2602583Y16221578D01*
X2592428Y16198034D01*
X2525578Y16082248D01*
X2456182Y15956683D01*
X2439555Y15933251D01*
X2423750Y15905874D01*
X2346625Y15802278D01*
X2267937Y15691377D01*
X2244729Y15665409D01*
X2222295Y15635273D01*
X2137116Y15544989D01*
X2051177Y15448823D01*
X2020652Y15421545D01*
X1990787Y15389889D01*
X1899764Y15313513D01*
X1808623Y15232063D01*
X1770241Y15204830D01*
X1732357Y15173041D01*
X1637650Y15110752D01*
X1543317Y15043818D01*
X1496770Y15018093D01*
X1450500Y14987660D01*
X1354190Y14939292D01*
X1258613Y14886468D01*
X1203809Y14863768D01*
X1149027Y14836255D01*
X1053064Y14801328D01*
X958076Y14761982D01*
X895179Y14743862D01*
X832016Y14720872D01*
X738220Y14698643D01*
X645487Y14671926D01*
X574870Y14659928D01*
X503753Y14643073D01*
X413751Y14632554D01*
X324782Y14617437D01*
X247100Y14613075D01*
X168678Y14603908D01*
X83884Y14603908D01*
X0Y14599197D01*
X-83884Y14603908D01*
X-168678Y14603908D01*
X-247100Y14613075D01*
X-324783Y14617437D01*
X-413755Y14632554D01*
X-503753Y14643073D01*
X-574868Y14659928D01*
X-645488Y14671926D01*
X-738227Y14698644D01*
X-832016Y14720872D01*
X-895176Y14743861D01*
X-958077Y14761982D01*
X-1053073Y14801331D01*
X-1149027Y14836255D01*
X-1203805Y14863766D01*
X-1258614Y14886468D01*
X-1354202Y14939298D01*
X-1450500Y14987660D01*
X-1496766Y15018090D01*
X-1543318Y15043818D01*
X-1637665Y15110761D01*
X-1732357Y15173041D01*
X-1770237Y15204826D01*
X-1808624Y15232063D01*
X-1899782Y15313527D01*
X-1990787Y15389889D01*
X-2020648Y15421539D01*
X-2051178Y15448823D01*
X-2137136Y15545010D01*
X-2222295Y15635273D01*
X-2244725Y15665402D01*
X-2267938Y15691377D01*
X-2346647Y15802306D01*
X-2423750Y15905874D01*
X-2439552Y15933244D01*
X-2456183Y15956683D01*
X-2525603Y16082289D01*
X-2592428Y16198034D01*
X-2602581Y16221570D01*
X-2613533Y16241387D01*
X-2671618Y16381615D01*
X-2726048Y16507800D01*
X-2731689Y16526642D01*
X-2738019Y16541924D01*
X-2782824Y16697442D01*
X-2822803Y16830983D01*
X-2825181Y16844466D01*
X-2828075Y16854513D01*
X-2857786Y17029380D01*
X-2881384Y17163214D01*
X-2881833Y17170912D01*
X-2882564Y17175218D01*
X-2895522Y17405949D01*
X-2901000Y17500000D01*
X-2895523Y17594045D01*
X-2882564Y17824783D01*
X-2881833Y17829090D01*
X-2881384Y17836786D01*
X-2857791Y17970594D01*
X-2828075Y18145488D01*
X-2825180Y18155538D01*
X-2822803Y18169017D01*
X-2782831Y18302534D01*
X-2738019Y18458077D01*
X-2731688Y18473363D01*
X-2726048Y18492200D01*
X-2671628Y18618361D01*
X-2613533Y18758614D01*
X-2602579Y18778436D01*
X-2592428Y18801966D01*
X-2525616Y18917690D01*
X-2456183Y19043318D01*
X-2439549Y19066763D01*
X-2423750Y19094126D01*
X-2346662Y19197674D01*
X-2267938Y19308624D01*
X-2244721Y19334605D01*
X-2222295Y19364727D01*
X-2137153Y19454974D01*
X-2051178Y19551178D01*
X-2020642Y19578468D01*
X-1990787Y19610111D01*
X-1899800Y19686459D01*
X-1808624Y19767938D01*
X-1770229Y19795182D01*
X-1732357Y19826959D01*
X-1637684Y19889228D01*
X-1543318Y19956183D01*
X-1496756Y19981917D01*
X-1450500Y20012340D01*
X-1354221Y20060694D01*
X-1258614Y20113533D01*
X-1203794Y20136241D01*
X-1149027Y20163745D01*
X-1053093Y20198663D01*
X-958077Y20238019D01*
X-895163Y20256145D01*
X-832016Y20279128D01*
X-738247Y20301352D01*
X-645488Y20328075D01*
X-574853Y20340077D01*
X-503753Y20356927D01*
X-413774Y20367445D01*
X-324783Y20382564D01*
X-247083Y20386928D01*
X-168678Y20396092D01*
X-83903Y20396092D01*
X-1Y20400804D01*
X83901Y20396092D01*
G37*
M02*
