G04 #@! TF.GenerationSoftware,KiCad,Pcbnew,7.0.5-0*
G04 #@! TF.CreationDate,2023-08-21T21:43:47+08:00*
G04 #@! TF.ProjectId,sensor,73656e73-6f72-42e6-9b69-6361645f7063,rev?*
G04 #@! TF.SameCoordinates,PX4d3f640PY69db9c0*
G04 #@! TF.FileFunction,Paste,Bot*
G04 #@! TF.FilePolarity,Positive*
%FSLAX46Y46*%
G04 Gerber Fmt 4.6, Leading zero omitted, Abs format (unit mm)*
G04 Created by KiCad (PCBNEW 7.0.5-0) date 2023-08-21 21:43:47*
%MOMM*%
%LPD*%
G01*
G04 APERTURE LIST*
G04 Aperture macros list*
%AMRoundRect*
0 Rectangle with rounded corners*
0 $1 Rounding radius*
0 $2 $3 $4 $5 $6 $7 $8 $9 X,Y pos of 4 corners*
0 Add a 4 corners polygon primitive as box body*
4,1,4,$2,$3,$4,$5,$6,$7,$8,$9,$2,$3,0*
0 Add four circle primitives for the rounded corners*
1,1,$1+$1,$2,$3*
1,1,$1+$1,$4,$5*
1,1,$1+$1,$6,$7*
1,1,$1+$1,$8,$9*
0 Add four rect primitives between the rounded corners*
20,1,$1+$1,$2,$3,$4,$5,0*
20,1,$1+$1,$4,$5,$6,$7,0*
20,1,$1+$1,$6,$7,$8,$9,0*
20,1,$1+$1,$8,$9,$2,$3,0*%
%AMRotRect*
0 Rectangle, with rotation*
0 The origin of the aperture is its center*
0 $1 length*
0 $2 width*
0 $3 Rotation angle, in degrees counterclockwise*
0 Add horizontal line*
21,1,$1,$2,0,0,$3*%
G04 Aperture macros list end*
%ADD10RoundRect,0.250001X-0.462499X-0.624999X0.462499X-0.624999X0.462499X0.624999X-0.462499X0.624999X0*%
%ADD11R,1.970000X0.600000*%
%ADD12RoundRect,0.250001X0.624999X-0.462499X0.624999X0.462499X-0.624999X0.462499X-0.624999X-0.462499X0*%
%ADD13RotRect,2.000000X0.650000X135.000000*%
%ADD14RoundRect,0.250001X0.768977X0.114905X0.114905X0.768977X-0.768977X-0.114905X-0.114905X-0.768977X0*%
%ADD15R,1.800000X0.600000*%
%ADD16RoundRect,0.250001X-0.624999X0.462499X-0.624999X-0.462499X0.624999X-0.462499X0.624999X0.462499X0*%
%ADD17RoundRect,0.250001X0.462499X0.624999X-0.462499X0.624999X-0.462499X-0.624999X0.462499X-0.624999X0*%
G04 APERTURE END LIST*
D10*
X7936500Y-5966066D03*
X10911500Y-5966066D03*
D11*
X8222700Y228600D03*
X8222700Y1498600D03*
X8222700Y2768600D03*
X8222700Y4038600D03*
X8222700Y5308600D03*
X8222700Y6578600D03*
X8222700Y7848600D03*
X13172700Y7848600D03*
X13172700Y6578600D03*
X13172700Y5308600D03*
X13172700Y4038600D03*
X13172700Y2768600D03*
X13172700Y1498600D03*
X13172700Y228600D03*
D12*
X-8229000Y-1014000D03*
X-8229000Y1961000D03*
D13*
X12574904Y11910599D03*
X11231401Y10567096D03*
X9484847Y13657153D03*
D14*
X-8850358Y12840758D03*
X-10954000Y14944400D03*
D15*
X-12129500Y-8126000D03*
X-12129500Y-7176000D03*
X-12129500Y-6226000D03*
X-9529500Y-6226000D03*
X-9529500Y-8126000D03*
D14*
X-11504404Y10133379D03*
X-13608046Y12237021D03*
D16*
X-7086000Y-8888000D03*
X-7086000Y-11863000D03*
D10*
X7936500Y-11885200D03*
X10911500Y-11885200D03*
X-4407900Y-10375500D03*
X-1432900Y-10375500D03*
X7936500Y-8925632D03*
X10911500Y-8925632D03*
D17*
X10911500Y-3006500D03*
X7936500Y-3006500D03*
M02*
